<?xml version="1.0" encoding="UTF-8" standalone="no"?>
<svg
   version="1.1"
   width="260.78741pt"
   height="153.07091pt"
   id="svg75"
   viewBox="0 0 260.78741 153.07091"
   sodipodi:docname="Jay kamdar.cdr"
   xmlns:inkscape="http://www.inkscape.org/namespaces/inkscape"
   xmlns:sodipodi="http://sodipodi.sourceforge.net/DTD/sodipodi-0.dtd"
   xmlns="http://www.w3.org/2000/svg"
   xmlns:svg="http://www.w3.org/2000/svg">
  <defs
     id="defs75" />
  <sodipodi:namedview
     id="namedview75"
     pagecolor="#ffffff"
     bordercolor="#000000"
     borderopacity="0.25"
     inkscape:showpageshadow="2"
     inkscape:pageopacity="0.0"
     inkscape:pagecheckerboard="0"
     inkscape:deskcolor="#d1d1d1"
     inkscape:document-units="pt" />
  <g
     id="Layer1000">
    <path
       d="M 0,0 V 153.0709 H 260.7874 V 0 Z"
       style="fill:none;stroke:#000000;stroke-width:0.5669;stroke-linecap:butt;stroke-linejoin:miter;stroke-dasharray:none"
       id="path1" />
    <path
       d="M -5.6694,0 H 266.4568 V 158.7402 H -5.6694 Z"
       style="fill:none"
       id="path2" />
    <g
       id="Layer1001">
      <path
         d="m 58.5909,82.2572 v 0.0949 h -1.2354 l 0.0423,-0.0949 z m -0.5047,-2.0448 1.0103,3.0263 c 0.0427,0.1197 0.0896,0.2025 0.1414,0.2426 0.0531,0.04 0.1,0.0627 0.145,0.0638 v 0.0975 c -0.0541,-0.0079 -0.1231,-0.0121 -0.2023,-0.0132 -0.0818,0 -0.161,-0.0026 -0.2414,-0.0026 -0.1082,0 -0.2082,0.0026 -0.3024,0.0026 -0.0941,0.0011 -0.17,0.0053 -0.2274,0.0132 v -0.0975 c 0.1414,-0.0053 0.231,-0.0344 0.2688,-0.0839 0.0381,-0.0491 0.031,-0.1572 -0.0251,-0.3185 l -0.7702,-2.3903 0.0655,-0.0642 -0.7216,2.1744 c -0.0577,0.1735 -0.085,0.3095 -0.0828,0.4082 0.0033,0.096 0.0343,0.1678 0.0952,0.2063 0.0609,0.0427 0.1495,0.0669 0.2668,0.068 v 0.0975 c -0.0795,-0.0079 -0.1587,-0.0121 -0.2437,-0.0132 -0.084,0 -0.1619,-0.0026 -0.2333,-0.0026 -0.07,0 -0.1287,0.0026 -0.1782,0.0026 -0.0472,0.0011 -0.0918,0.0053 -0.1332,0.0132 v -0.0975 c 0.055,-0.0158 0.1114,-0.0517 0.17,-0.1133 0.0574,-0.0571 0.1105,-0.1599 0.1574,-0.305 l 0.9748,-2.9144 h 0.0322 z"
         style="fill:#0c296a;fill-rule:evenodd"
         id="path3" />
      <path
         d="m 61.6416,80.3242 c -0.1264,0 -0.2104,0.028 -0.2482,0.0824 -0.0391,0.0548 -0.0587,0.164 -0.0587,0.3322 v 2.4035 c 0,0.1655 0.0206,0.2774 0.0597,0.3322 0.0404,0.0544 0.1254,0.0823 0.2518,0.0823 0.301,0 0.5356,-0.0638 0.6998,-0.1919 0.1668,-0.1251 0.2828,-0.3107 0.3483,-0.5544 0.0677,-0.2441 0.1,-0.54 0.1,-0.8907 0,-0.537 -0.0837,-0.9399 -0.2551,-1.201 -0.1701,-0.2627 -0.4688,-0.3946 -0.8976,-0.3946 z m 0.1046,-0.0869 c 0.4942,0 0.8621,0.1429 1.1022,0.4293 0.2401,0.2895 0.361,0.6988 0.361,1.2358 0,0.3469 -0.06,0.6549 -0.176,0.9145 -0.1182,0.2615 -0.2883,0.4641 -0.5115,0.6081 -0.2251,0.1455 -0.4952,0.2173 -0.8138,0.2173 -0.0606,0 -0.1505,-0.0027 -0.2688,-0.008 -0.1182,-0.0053 -0.2228,-0.0068 -0.3114,-0.0068 -0.0965,0 -0.1919,0.0015 -0.2861,0.0015 -0.0932,0.0012 -0.1704,0.0053 -0.2287,0.0133 v -0.0972 c 0.0951,-0.0053 0.1655,-0.0189 0.2147,-0.0374 0.0472,-0.0189 0.0805,-0.0574 0.0968,-0.1149 0.0169,-0.0585 0.025,-0.1451 0.025,-0.2596 v -2.3865 c 0,-0.1175 -0.0081,-0.2052 -0.025,-0.2626 -0.0163,-0.0548 -0.0496,-0.0949 -0.0968,-0.1149 -0.0492,-0.0196 -0.1196,-0.0317 -0.2147,-0.0359 v -0.096 c 0.0583,0.0027 0.1355,0.0053 0.2287,0.0106 0.0942,0.0068 0.1873,0.0068 0.2779,0.0026 0.0968,-0.0026 0.2069,-0.0052 0.3278,-0.009 0.1218,-0.0027 0.2192,-0.0042 0.2987,-0.0042 z"
         style="fill:#0c296a;fill-rule:evenodd"
         id="path4" />
      <path
         d="m 66.899,80.2369 v 0.096 c -0.0528,0.0133 -0.1082,0.0492 -0.1678,0.1108 -0.0599,0.0612 -0.1127,0.1625 -0.1596,0.3091 l -0.9748,2.9129 h -0.015 -0.0173 -0.0172 -0.016 l -1.0116,-3.0236 c -0.0414,-0.1225 -0.0883,-0.2041 -0.1411,-0.2438 -0.0531,-0.0401 -0.1,-0.0616 -0.1449,-0.0654 v -0.096 c 0.055,0.0027 0.1231,0.0065 0.2046,0.0106 0.0814,0.0042 0.1609,0.0042 0.2391,0.0042 0.1078,0 0.2078,0 0.3023,-0.0042 0.0942,-0.0041 0.1711,-0.0079 0.2274,-0.0106 v 0.096 c -0.1414,0.0065 -0.2297,0.0359 -0.2665,0.0839 -0.0368,0.0522 -0.029,0.1572 0.0219,0.3212 l 0.7711,2.3691 -0.0655,0.0828 0.7217,-2.173 c 0.0576,-0.1734 0.085,-0.3095 0.0827,-0.4066 -0.0032,-0.0986 -0.0345,-0.1682 -0.0954,-0.2093 -0.061,-0.0428 -0.1493,-0.0643 -0.2665,-0.0681 v -0.096 c 0.0814,0.0027 0.1619,0.0065 0.2446,0.0106 0.0841,0.0042 0.161,0.0042 0.2323,0.0042 0.0723,0 0.1323,0 0.1792,-0.0042 0.0473,-0.0041 0.0909,-0.0079 0.1323,-0.0106 z"
         style="fill:#0c296a;fill-rule:evenodd"
         id="path5" />
      <path
         d="m 69.2134,80.2562 c -0.1795,0 -0.3368,0.0733 -0.4691,0.2173 -0.1323,0.144 -0.2356,0.3428 -0.3092,0.596 -0.0736,0.252 -0.1091,0.5468 -0.1091,0.8801 0,0.3386 0.0413,0.6345 0.1218,0.8866 0.0815,0.2517 0.1919,0.4478 0.331,0.5812 0.1401,0.1372 0.2955,0.2037 0.462,0.2037 0.1805,0 0.3369,-0.0692 0.4701,-0.2147 0.1323,-0.1439 0.2346,-0.345 0.3079,-0.5986 0.0736,-0.2543 0.1104,-0.5464 0.1104,-0.8782 0,-0.3443 -0.0413,-0.6402 -0.1228,-0.8881 -0.0818,-0.2505 -0.1919,-0.444 -0.3287,-0.5812 -0.1391,-0.1361 -0.2942,-0.2041 -0.4643,-0.2041 z m 0.016,-0.085 c 0.2619,0 0.4919,0.0665 0.6897,0.2063 0.1974,0.1376 0.3515,0.3348 0.4607,0.5933 0.1091,0.2574 0.1645,0.5722 0.1645,0.9399 0,0.3601 -0.0577,0.6734 -0.1678,0.9425 -0.1127,0.2679 -0.2691,0.4788 -0.4678,0.6307 -0.1978,0.1508 -0.4265,0.2252 -0.6829,0.2252 -0.2632,0 -0.4942,-0.0691 -0.6907,-0.2052 -0.1977,-0.1387 -0.3515,-0.3374 -0.4597,-0.5971 -0.1104,-0.26 -0.1655,-0.5721 -0.1655,-0.9375 0,-0.3583 0.0574,-0.6757 0.1714,-0.9437 0.1124,-0.2694 0.2678,-0.4788 0.4665,-0.6307 0.1978,-0.1493 0.4242,-0.2237 0.6816,-0.2237 z"
         style="fill:#0c296a;fill-rule:evenodd"
         id="path6" />
      <path
         d="m 73.2507,80.1704 c 0.1824,0 0.332,0.0306 0.4502,0.0934 0.1173,0.0612 0.2209,0.1345 0.3128,0.2188 0.055,0.048 0.0964,0.0518 0.1254,0.0159 0.0297,-0.0359 0.0492,-0.124 0.0606,-0.2616 h 0.0955 c -0.0056,0.1202 -0.0101,0.2642 -0.0127,0.4335 -0.0023,0.1693 -0.0033,0.3945 -0.0033,0.6734 h -0.0955 c -0.0195,-0.1387 -0.0377,-0.2483 -0.054,-0.3295 -0.016,-0.0839 -0.0378,-0.1519 -0.061,-0.2079 -0.0228,-0.0585 -0.0537,-0.1175 -0.0918,-0.1734 -0.086,-0.1319 -0.1942,-0.2279 -0.3229,-0.2865 -0.1323,-0.0616 -0.2691,-0.0907 -0.4115,-0.0907 -0.1355,0 -0.2573,0.0412 -0.3668,0.1187 -0.1101,0.0786 -0.2033,0.192 -0.2825,0.3371 -0.0795,0.1493 -0.1391,0.3269 -0.1818,0.5362 -0.0436,0.2079 -0.0642,0.4426 -0.0642,0.7011 0,0.2705 0.0229,0.5079 0.0688,0.7161 0.0472,0.2052 0.114,0.3783 0.1977,0.5211 0.0851,0.1398 0.1841,0.2453 0.2988,0.3186 0.115,0.0722 0.2391,0.1081 0.3701,0.1081 0.1264,0 0.2551,-0.028 0.391,-0.0854 0.1345,-0.0586 0.2414,-0.1519 0.3192,-0.2785 0.06,-0.0949 0.1023,-0.1947 0.1268,-0.3043 0.0228,-0.1092 0.0446,-0.26 0.0641,-0.4572 h 0.0955 c 0,0.2921 10e-4,0.5279 0.0033,0.7067 0.0026,0.1761 0.0071,0.3265 0.0127,0.4478 h -0.0955 c -0.0114,-0.1383 -0.0287,-0.2237 -0.056,-0.2585 -0.0254,-0.0359 -0.0691,-0.0306 -0.13,0.0147 -0.1036,0.0813 -0.2115,0.1546 -0.3252,0.2185 -0.115,0.0627 -0.2632,0.0922 -0.4427,0.0922 -0.262,0 -0.4929,-0.0681 -0.6894,-0.2052 -0.1964,-0.1387 -0.3506,-0.3375 -0.4597,-0.596 -0.1104,-0.2615 -0.1645,-0.5733 -0.1645,-0.9372 0,-0.3601 0.0563,-0.6761 0.17,-0.944 0.1141,-0.2706 0.2679,-0.48 0.4669,-0.6307 0.1965,-0.1493 0.4239,-0.2253 0.6816,-0.2253 z"
         style="fill:#0c296a;fill-rule:evenodd"
         id="path7" />
      <path
         d="m 77.4482,82.2572 v 0.0949 h -1.2341 l 0.0414,-0.0949 z m -0.5043,-2.0448 1.0112,3.0263 c 0.0414,0.1197 0.0887,0.2025 0.1405,0.2426 0.0527,0.04 0.101,0.0627 0.1446,0.0638 v 0.0975 c -0.0541,-0.0079 -0.1218,-0.0121 -0.2023,-0.0132 -0.0805,0 -0.1609,-0.0026 -0.2401,-0.0026 -0.1082,0 -0.2092,0.0026 -0.3033,0.0026 -0.0932,0.0011 -0.1691,0.0053 -0.2278,0.0132 v -0.0975 c 0.1414,-0.0053 0.231,-0.0344 0.2691,-0.0839 0.0378,-0.0491 0.031,-0.1572 -0.0244,-0.3185 l -0.7711,-2.3903 0.0654,-0.0642 -0.7206,2.1744 c -0.0574,0.1735 -0.086,0.3095 -0.0837,0.4082 0.0035,0.096 0.0345,0.1678 0.0954,0.2063 0.0619,0.0427 0.1492,0.0669 0.2665,0.068 v 0.0975 c -0.0782,-0.0079 -0.1586,-0.0121 -0.2437,-0.0132 -0.0837,0 -0.1619,-0.0026 -0.2332,-0.0026 -0.0691,0 -0.1287,0.0026 -0.177,0.0026 -0.0482,0.0011 -0.0931,0.0053 -0.1345,0.0132 v -0.0975 c 0.055,-0.0158 0.1114,-0.0517 0.1701,-0.1133 0.0576,-0.0571 0.1104,-0.1599 0.1576,-0.305 l 0.9745,-2.9144 h 0.0322 z"
         style="fill:#0c296a;fill-rule:evenodd"
         id="path8" />
      <path
         d="m 81.5272,80.2369 c -0.0118,0.1213 -0.0196,0.2411 -0.0242,0.3534 -0.0022,0.116 -0.0045,0.2025 -0.0045,0.2626 0,0.0771 10e-4,0.1493 0.0045,0.2173 0.001,0.0654 0.0046,0.1266 0.0069,0.1773 H 81.4144 C 81.3962,81.0234 81.3685,80.8461 81.3362,80.7154 81.304,80.5876 81.2453,80.4916 81.1626,80.4342 81.0789,80.3768 80.9512,80.3477 80.7765,80.3477 h -0.2241 v 2.7368 c 0,0.1281 0.0104,0.2241 0.0322,0.2879 0.0196,0.0654 0.0597,0.1081 0.1206,0.1308 0.0622,0.0227 0.1495,0.0374 0.2668,0.0412 v 0.0986 c -0.0723,-0.0079 -0.1645,-0.0117 -0.2746,-0.0132 -0.1105,0 -0.2219,-0.0027 -0.3356,-0.0027 -0.1241,0 -0.2414,0.0027 -0.3496,0.0027 -0.1104,0.0015 -0.1977,0.0053 -0.2642,0.0132 v -0.0986 c 0.1173,-0.0038 0.2056,-0.0185 0.2665,-0.0412 0.0599,-0.0227 0.1,-0.0654 0.1209,-0.1308 0.0218,-0.0638 0.0309,-0.1598 0.0309,-0.2879 v -2.7368 h -0.2232 c -0.171,0 -0.2997,0.0291 -0.3837,0.0865 -0.0838,0.0574 -0.1424,0.1534 -0.176,0.2812 -0.0342,0.1307 -0.0596,0.308 -0.0791,0.5321 h -0.0955 c 0.0059,-0.0507 0.0091,-0.1119 0.0104,-0.1773 0.0013,-0.068 0.0023,-0.1402 0.0023,-0.2173 0,-0.0601 -0.0023,-0.1466 -0.0059,-0.2626 -0.0045,-0.1123 -0.0114,-0.2321 -0.0228,-0.3534 0.116,0.0027 0.2424,0.0065 0.3793,0.0106 0.1368,0.0042 0.2736,0.0042 0.4124,0.0042 h 0.3773 0.3756 c 0.1369,0 0.2747,0 0.4128,-0.0042 0.1378,-0.0041 0.2633,-0.0079 0.377,-0.0106 z"
         style="fill:#0c296a;fill-rule:evenodd"
         id="path9" />
      <path
         d="m 84.3117,81.2471 c -0.0114,0.1825 -0.0172,0.3227 -0.015,0.4172 0.0013,0.0975 0.0023,0.1867 0.0023,0.2653 0,0.0801 0.0013,0.1693 0.0036,0.2641 0.0023,0.096 0.0104,0.2374 0.0218,0.4188 H 84.229 c -0.0114,-0.1017 -0.0251,-0.2015 -0.0391,-0.3001 -0.016,-0.0986 -0.0492,-0.1772 -0.1,-0.2415 -0.0515,-0.0612 -0.1366,-0.0918 -0.2597,-0.0918 v -0.0975 c 0.1231,0 0.2082,-0.037 0.2551,-0.1104 0.0495,-0.0733 0.0795,-0.1602 0.0945,-0.26 0.0124,-0.0986 0.0251,-0.1866 0.0365,-0.2641 z m -0.1195,0.732 h -0.7585 v -0.0975 h 0.7585 z m 0.7128,-1.7425 c -0.0117,0.1118 -0.0196,0.2225 -0.0244,0.328 -0.0033,0.1054 -0.0056,0.1867 -0.0056,0.2411 0,0.0563 0.001,0.1134 0.0046,0.1655 0.0023,0.0533 0.0058,0.0971 0.0081,0.1319 h -0.0954 c -0.0173,-0.1905 -0.0404,-0.3386 -0.0714,-0.4493 -0.03,-0.1108 -0.0814,-0.1894 -0.1541,-0.2374 -0.0733,-0.0453 -0.1837,-0.0691 -0.3297,-0.0691 h -0.3437 c -0.0942,0 -0.1655,0.0094 -0.215,0.028 -0.0482,0.0158 -0.0792,0.0548 -0.0965,0.1092 -0.0172,0.0574 -0.0254,0.144 -0.0254,0.2626 v 2.3865 c 0,0.1145 0.0082,0.1999 0.0254,0.2585 0.0173,0.0574 0.0483,0.0948 0.0965,0.1122 0.0495,0.02 0.1208,0.0265 0.215,0.0265 h 0.301 c 0.175,0 0.3069,-0.028 0.3965,-0.0813 0.0899,-0.0548 0.1554,-0.1424 0.1945,-0.2679 0.0401,-0.1213 0.0711,-0.2895 0.0896,-0.5011 h 0.0955 c -0.0095,0.0865 -0.0127,0.201 -0.0127,0.3465 0,0.0612 0.0023,0.1478 0.0068,0.2612 0.0036,0.1148 0.0114,0.232 0.0231,0.3548 -0.1413,-0.0083 -0.3,-0.0121 -0.4769,-0.0136 -0.1759,0 -0.3346,-0.0026 -0.4724,-0.0026 h -0.33 c -0.1379,0 -0.2828,0.0026 -0.4379,0.0026 -0.1551,0.0015 -0.2988,0.0053 -0.4356,0.0136 v -0.0975 c 0.0941,-0.0053 0.1645,-0.0185 0.2137,-0.0385 0.0482,-0.0174 0.0818,-0.0575 0.0978,-0.1149 0.0159,-0.0586 0.0254,-0.144 0.0254,-0.2585 v -2.3865 c 0,-0.1186 -0.0095,-0.2052 -0.0254,-0.2626 -0.016,-0.0544 -0.0496,-0.096 -0.0978,-0.1145 -0.0492,-0.0216 -0.1196,-0.0333 -0.2137,-0.0374 v -0.096 c 0.1368,0.0026 0.2805,0.0068 0.4356,0.0105 0.1551,0.0042 0.3,0.0042 0.4379,0.0042 h 0.33 c 0.1264,0 0.271,0 0.4333,-0.0026 0.1606,-0.0016 0.3056,-0.0053 0.4333,-0.0121 z"
         style="fill:#0c296a;fill-rule:evenodd"
         id="path10" />
      <path
         d="m 87.2074,80.1833 c 0.1391,0 0.2437,0.02 0.315,0.0559 0.0724,0.0363 0.1369,0.0775 0.1909,0.1228 0.0333,0.0212 0.061,0.0401 0.0815,0.0522 0.0195,0.0106 0.0404,0.0159 0.0586,0.0159 0.046,0 0.0759,-0.0722 0.0919,-0.2121 h 0.0968 c -0.0036,0.0548 -0.0072,0.1187 -0.0118,0.1962 -0.0032,0.0744 -0.0068,0.1746 -0.0078,0.297 -0.0013,0.1228 -0.0023,0.2853 -0.0023,0.4879 H 87.9248 C 87.9166,81.0445 87.888,80.8979 87.8375,80.7566 87.7879,80.6152 87.7156,80.5007 87.6189,80.41 c -0.0942,-0.0892 -0.2193,-0.1345 -0.3747,-0.1345 -0.146,0 -0.2665,0.0518 -0.362,0.1546 -0.0954,0.1027 -0.1423,0.2358 -0.1423,0.4024 0,0.144 0.0309,0.2668 0.0951,0.3639 0.0622,0.0975 0.1486,0.1856 0.2541,0.2642 0.1069,0.0801 0.2229,0.164 0.346,0.2532 0.1447,0.1028 0.2724,0.2041 0.3838,0.3053 0.1127,0.1013 0.2,0.2121 0.2655,0.3334 0.0655,0.1228 0.0978,0.2694 0.0978,0.4425 0,0.2067 -0.0401,0.376 -0.1206,0.5094 -0.0795,0.1345 -0.1863,0.2385 -0.3186,0.3038 -0.1333,0.0669 -0.2792,0.1013 -0.4402,0.1013 -0.1459,0 -0.2632,-0.02 -0.3482,-0.057 -0.086,-0.0401 -0.1584,-0.0802 -0.2193,-0.1213 -0.0609,-0.0443 -0.1082,-0.0681 -0.1414,-0.0681 -0.0436,0 -0.0749,0.0718 -0.0909,0.212 h -0.0954 c 0.0058,-0.0669 0.0091,-0.1455 0.0104,-0.2373 10e-4,-0.0907 0.0023,-0.212 0.0032,-0.3575 0.0013,-0.1466 0.0026,-0.3333 0.0026,-0.5585 h 0.0952 c 0.0117,0.1908 0.0427,0.3718 0.0932,0.5385 0.0505,0.1655 0.1309,0.3015 0.2368,0.4013 0.1056,0.1013 0.2483,0.1508 0.4252,0.1508 0.1355,0 0.2587,-0.0495 0.3714,-0.1508 0.1114,-0.0998 0.1678,-0.2626 0.1678,-0.4867 0,-0.1984 -0.06,-0.3583 -0.1782,-0.4864 -0.1186,-0.1281 -0.276,-0.26 -0.4692,-0.3945 -0.1287,-0.0934 -0.2515,-0.1882 -0.3652,-0.2827 -0.1127,-0.0975 -0.2023,-0.2094 -0.2714,-0.336 -0.0668,-0.1266 -0.101,-0.2789 -0.101,-0.4587 0,-0.1894 0.0368,-0.3466 0.1091,-0.4694 0.0737,-0.1224 0.1701,-0.2146 0.2897,-0.2744 0.1173,-0.0589 0.246,-0.0895 0.3802,-0.0895 z"
         style="fill:#0c296a;fill-rule:evenodd"
         id="path11" />
      <path
         d="m 93.8578,80.1704 c 0.1711,0 0.3147,0.0575 0.4307,0.1693 0.1173,0.116 0.175,0.2748 0.175,0.4788 0,0.164 -0.0391,0.3012 -0.114,0.412 -0.0769,0.1118 -0.1701,0.1972 -0.2793,0.2626 -0.0641,0.0359 -0.1469,0.0733 -0.2515,0.1145 -0.1036,0.0427 -0.215,0.0854 -0.3323,0.1255 -0.1173,0.0412 -0.2287,0.0824 -0.3355,0.1239 -0.1059,0.0401 -0.1919,0.0718 -0.2597,0.1013 -0.1023,0.0454 -0.1873,0.0998 -0.2577,0.1667 -0.071,0.0653 -0.1069,0.1492 -0.1069,0.2532 0,0.0827 0.0209,0.1534 0.0623,0.2105 0.0413,0.0574 0.0918,0.1016 0.1518,0.1307 0.0596,0.0295 0.116,0.0427 0.1678,0.0427 0.0391,0 0.0873,-0.0094 0.1469,-0.0264 0.0599,-0.0189 0.0932,-0.0427 0.1023,-0.079 -0.0437,-0.0106 -0.0896,-0.0318 -0.131,-0.0707 -0.0436,-0.037 -0.0645,-0.096 -0.0645,-0.1746 0,-0.0771 0.0218,-0.1372 0.0655,-0.1825 0.045,-0.0454 0.099,-0.068 0.1622,-0.068 0.0668,0 0.1196,0.0241 0.161,0.0733 0.0391,0.0468 0.0586,0.1092 0.0586,0.1851 0,0.0923 -0.0254,0.1667 -0.0759,0.2294 -0.0518,0.0628 -0.115,0.1081 -0.1909,0.1402 -0.0759,0.0307 -0.1515,0.0454 -0.2264,0.0454 -0.0769,0 -0.1561,-0.0189 -0.2356,-0.059 -0.0804,-0.037 -0.1469,-0.0986 -0.2,-0.1783 -0.0515,-0.0817 -0.0792,-0.1909 -0.0792,-0.3254 0,-0.1682 0.0495,-0.3069 0.146,-0.4199 0.0964,-0.1133 0.2391,-0.2093 0.4264,-0.2815 0.0838,-0.0333 0.1851,-0.068 0.3034,-0.1051 0.1195,-0.04 0.2401,-0.0816 0.3665,-0.1269 0.1264,-0.0439 0.2391,-0.0945 0.3414,-0.1493 0.1391,-0.0733 0.2333,-0.1478 0.2828,-0.2237 0.0495,-0.0802 0.0746,-0.1576 0.0746,-0.2374 0,-0.1387 -0.0469,-0.252 -0.1424,-0.3454 -0.0954,-0.0933 -0.2091,-0.1398 -0.3378,-0.1398 -0.0336,0 -0.0609,0.0038 -0.0828,0.0091 -0.0231,0.0053 -0.0368,0.0174 -0.0413,0.0332 0.0378,0.0227 0.0664,0.0548 0.0873,0.0975 0.0172,0.0401 0.0286,0.0828 0.0286,0.124 0,0.068 -0.0231,0.1239 -0.0677,0.1682 -0.0473,0.0453 -0.1013,0.068 -0.1655,0.068 -0.0518,0 -0.1023,-0.0216 -0.1483,-0.0601 -0.0472,-0.0401 -0.07,-0.1013 -0.07,-0.1814 0,-0.0813 0.0228,-0.1481 0.071,-0.1973 0.0495,-0.048 0.1082,-0.0827 0.1782,-0.1028 0.0714,-0.0211 0.1391,-0.0306 0.2059,-0.0306 z m -1.5081,0.0949 c 0.1036,0 0.1909,0.0143 0.2597,0.0423 0.0704,0.0268 0.1254,0.0616 0.1714,0.1028 0.054,0.0522 0.0941,0.1066 0.1172,0.1655 0.0241,0.0597 0.0346,0.1157 0.0346,0.1667 0,0.0786 -0.0241,0.1424 -0.0714,0.1863 -0.0495,0.0468 -0.1023,0.068 -0.1596,0.068 -0.0564,0 -0.1059,-0.0212 -0.1509,-0.0623 -0.0436,-0.0416 -0.0641,-0.1017 -0.0641,-0.1788 0,-0.068 0.0195,-0.1292 0.0609,-0.1799 0.0414,-0.0495 0.0932,-0.0774 0.1573,-0.0843 -0.0114,-0.0411 -0.0446,-0.0759 -0.101,-0.1077 -0.0576,-0.0309 -0.1286,-0.0453 -0.2137,-0.0453 -0.1404,0 -0.2564,0.0491 -0.346,0.1451 -0.0896,0.1002 -0.1345,0.2415 -0.1345,0.4282 0,0.0892 0.0137,0.1799 0.0436,0.2732 0.0287,0.0934 0.0841,0.184 0.1678,0.2732 0.046,-0.0094 0.0942,-0.0158 0.1437,-0.0215 0.0505,-0.0038 0.0873,-0.0079 0.1137,-0.0079 0.1104,0 0.1645,0.0389 0.1645,0.1107 0,0.0306 -0.0091,0.0521 -0.0309,0.068 -0.0196,0.0174 -0.0486,0.0253 -0.0841,0.0253 -0.0528,0 -0.1081,-0.0132 -0.1668,-0.0412 -0.0573,-0.0268 -0.1033,-0.0495 -0.1365,-0.0653 -0.16,0.0544 -0.2909,0.1439 -0.3897,0.2664 -0.1,0.1239 -0.1495,0.2963 -0.1495,0.5215 0,0.2211 0.0495,0.4078 0.1495,0.5623 0.0988,0.155 0.232,0.2721 0.3998,0.3549 0.1668,0.0801 0.3551,0.1224 0.562,0.1224 0.1463,0 0.2851,-0.0196 0.4173,-0.0597 0.131,-0.0401 0.246,-0.0986 0.347,-0.1761 0.1013,-0.0786 0.1818,-0.1693 0.2391,-0.2774 0.0577,-0.1066 0.0864,-0.2294 0.0864,-0.3677 0,-0.0601 -0.0104,-0.1387 -0.0323,-0.232 -0.0218,-0.0949 -0.0677,-0.1882 -0.1368,-0.2789 -0.0701,-0.0918 -0.1759,-0.1637 -0.3193,-0.2147 l 0.0492,-0.0491 c 0.2013,0.0718 0.346,0.1852 0.4323,0.3401 0.0851,0.1557 0.1274,0.3277 0.1274,0.5223 0,0.192 -0.0492,0.3749 -0.1492,0.5521 -0.099,0.1772 -0.2427,0.3186 -0.431,0.4304 -0.1874,0.1108 -0.4151,0.1656 -0.6839,0.1656 -0.2381,0 -0.4587,-0.0469 -0.6643,-0.1429 -0.2036,-0.0971 -0.3678,-0.2347 -0.4919,-0.4145 -0.1254,-0.1788 -0.1873,-0.3931 -0.1873,-0.6398 0,-0.172 0.0296,-0.3213 0.0873,-0.4441 0.0573,-0.1239 0.1296,-0.2252 0.216,-0.3065 0.085,-0.0801 0.1723,-0.1413 0.2574,-0.184 0.085,-0.0442 0.1541,-0.0733 0.2059,-0.0892 -0.1382,-0.0707 -0.2428,-0.1629 -0.3128,-0.2736 -0.0714,-0.1134 -0.1056,-0.229 -0.1056,-0.3477 0,-0.0748 0.016,-0.1508 0.046,-0.2241 0.0309,-0.0706 0.0759,-0.136 0.1319,-0.1946 0.0587,-0.0559 0.1313,-0.1013 0.2186,-0.1334 0.0873,-0.0321 0.1883,-0.0491 0.3056,-0.0491 z"
         style="fill:#0c296a;fill-rule:evenodd"
         id="path12" />
      <path
         d="m 98.7747,80.1704 c 0.1818,0 0.3323,0.0306 0.4506,0.0934 0.1173,0.0612 0.2209,0.1345 0.3115,0.2188 0.0563,0.048 0.0977,0.0518 0.1264,0.0159 0.0299,-0.0359 0.0495,-0.124 0.0609,-0.2616 h 0.0954 c -0.0055,0.1202 -0.0104,0.2642 -0.0127,0.4335 -0.0022,0.1693 -0.0032,0.3945 -0.0032,0.6734 H 99.7081 C 99.6886,81.2051 99.6703,81.0955 99.654,81.0143 99.6368,80.9304 99.6162,80.8624 99.5931,80.8064 99.5703,80.7479 99.539,80.6889 99.4999,80.633 c -0.085,-0.1319 -0.1928,-0.2279 -0.3215,-0.2865 -0.1323,-0.0616 -0.2691,-0.0907 -0.4115,-0.0907 -0.1359,0 -0.2574,0.0412 -0.3668,0.1187 -0.1102,0.0786 -0.2033,0.192 -0.2825,0.3371 -0.0795,0.1493 -0.1391,0.3269 -0.1818,0.5362 -0.0437,0.2079 -0.0642,0.4426 -0.0642,0.7011 0,0.2705 0.0228,0.5079 0.0688,0.7161 0.0472,0.2052 0.114,0.3783 0.1977,0.5211 0.085,0.1398 0.1838,0.2453 0.2988,0.3186 0.115,0.0722 0.2391,0.1081 0.3701,0.1081 0.1264,0 0.2551,-0.028 0.3909,-0.0854 0.1343,-0.0586 0.2411,-0.1519 0.3193,-0.2785 0.0599,-0.0949 0.1023,-0.1947 0.1264,-0.3043 0.0231,-0.1092 0.045,-0.26 0.0645,-0.4572 h 0.0955 c 0,0.2921 10e-4,0.5279 0.0032,0.7067 0.0023,0.1761 0.0072,0.3265 0.0127,0.4478 h -0.0954 c -0.0114,-0.1383 -0.0297,-0.2237 -0.0561,-0.2585 -0.0254,-0.0359 -0.069,-0.0306 -0.1312,0.0147 -0.1023,0.0813 -0.2102,0.1546 -0.3252,0.2185 -0.1137,0.0627 -0.2619,0.0922 -0.4414,0.0922 -0.262,0 -0.493,-0.0681 -0.6894,-0.2052 -0.1978,-0.1387 -0.3506,-0.3375 -0.461,-0.596 -0.1092,-0.2615 -0.1632,-0.5733 -0.1632,-0.9372 0,-0.3601 0.055,-0.6761 0.17,-0.944 0.1137,-0.2706 0.2678,-0.48 0.4656,-0.6307 0.1977,-0.1493 0.4251,-0.2253 0.6825,-0.2253 z"
         style="fill:#0c296a;fill-rule:evenodd"
         id="path13" />
      <path
         d="m 102.5373,80.2562 c -0.1795,0 -0.3356,0.0733 -0.4678,0.2173 -0.1323,0.144 -0.2356,0.3428 -0.3105,0.596 -0.0723,0.252 -0.1078,0.5468 -0.1078,0.8801 0,0.3386 0.04,0.6345 0.1205,0.8866 0.0818,0.2517 0.1932,0.4478 0.3323,0.5812 0.1401,0.1372 0.2942,0.2037 0.462,0.2037 0.1805,0 0.3356,-0.0692 0.4701,-0.2147 0.131,-0.1439 0.2343,-0.345 0.3079,-0.5986 0.0736,-0.2543 0.1091,-0.5464 0.1091,-0.8782 0,-0.3443 -0.04,-0.6402 -0.1218,-0.8881 -0.0815,-0.2505 -0.1919,-0.444 -0.3297,-0.5812 -0.1378,-0.1361 -0.2932,-0.2041 -0.4643,-0.2041 z m 0.0173,-0.085 c 0.2619,0 0.4916,0.0665 0.6894,0.2063 0.1977,0.1376 0.3505,0.3348 0.461,0.5933 0.1078,0.2574 0.1632,0.5722 0.1632,0.9399 0,0.3601 -0.0564,0.6734 -0.1678,0.9425 -0.1114,0.2679 -0.2678,0.4788 -0.4669,0.6307 -0.1974,0.1508 -0.4274,0.2252 -0.6838,0.2252 -0.2629,0 -0.4929,-0.0691 -0.6907,-0.2052 -0.1977,-0.1387 -0.3505,-0.3374 -0.4597,-0.5971 -0.1091,-0.26 -0.1642,-0.5721 -0.1642,-0.9375 0,-0.3583 0.0564,-0.6757 0.1711,-0.9437 0.1127,-0.2694 0.2678,-0.4788 0.4655,-0.6307 0.1978,-0.1493 0.4252,-0.2237 0.6829,-0.2237 z"
         style="fill:#0c296a;fill-rule:evenodd"
         id="path14" />
      <path
         d="m 107.736,80.2369 v 0.096 c -0.0919,0.0038 -0.1655,0.0201 -0.2124,0.0492 -0.0485,0.0279 -0.0818,0.0748 -0.0977,0.1386 -0.0163,0.0643 -0.0241,0.1546 -0.0241,0.2733 v 2.8717 h -0.0496 -0.0472 l -1.7411,-3.1223 v 2.5411 c 0,0.1148 0.0101,0.2052 0.0274,0.2721 0.0173,0.0653 0.0541,0.1118 0.1092,0.1386 0.0518,0.0291 0.1335,0.0454 0.2414,0.0492 v 0.0986 c -0.0492,-0.0079 -0.1147,-0.0117 -0.1942,-0.0132 -0.0815,0 -0.1564,-0.0027 -0.2287,-0.0027 -0.0691,0 -0.1391,0.0027 -0.2092,0.0027 -0.0713,0.0015 -0.13,0.0053 -0.1769,0.0132 v -0.0986 c 0.0929,-0.0038 0.1665,-0.0201 0.2137,-0.0492 0.0483,-0.0268 0.0805,-0.0733 0.0965,-0.1386 0.0185,-0.0669 0.0254,-0.1573 0.0254,-0.2721 v -2.337 c 0,-0.1187 -0.007,-0.2052 -0.0254,-0.2627 -0.016,-0.0547 -0.0482,-0.0959 -0.0965,-0.1145 -0.0472,-0.0215 -0.1208,-0.0336 -0.2137,-0.0374 v -0.096 c 0.0469,0.0027 0.1056,0.0065 0.1769,0.0106 0.0701,0.0042 0.1401,0.0042 0.2092,0.0042 0.0609,0 0.1183,0 0.1746,-0.0042 0.0554,-0.0041 0.1036,-0.0079 0.1496,-0.0106 l 1.4618,2.617 V 80.794 c 0,-0.1187 -0.009,-0.209 -0.0251,-0.2733 -0.0186,-0.0638 -0.0541,-0.1107 -0.1095,-0.1386 -0.0537,-0.0291 -0.1332,-0.0454 -0.2423,-0.0492 v -0.096 c 0.0504,0.0027 0.1159,0.0065 0.1964,0.0106 0.0818,0.0042 0.1564,0.0042 0.2264,0.0042 0.0727,0 0.1437,0 0.2151,-0.0042 0.07,-0.0041 0.1264,-0.0079 0.17,-0.0106 z"
         style="fill:#0c296a;fill-rule:evenodd"
         id="path15" />
      <path
         d="m 109.8472,80.1833 c 0.1381,0 0.2437,0.02 0.3137,0.0559 0.0727,0.0363 0.1359,0.0775 0.1922,0.1228 0.0333,0.0212 0.0596,0.0401 0.0805,0.0522 0.0205,0.0106 0.0414,0.0159 0.0596,0.0159 0.045,0 0.0759,-0.0722 0.0919,-0.2121 h 0.0955 c -0.004,0.0548 -0.006,0.1187 -0.0115,0.1962 -0.002,0.0744 -0.006,0.1746 -0.008,0.297 -0.001,0.1228 -0.001,0.2853 -0.001,0.4879 h -0.0951 c -0.008,-0.1546 -0.0381,-0.3012 -0.0864,-0.4425 -0.0505,-0.1414 -0.1241,-0.2559 -0.2196,-0.3466 -0.0941,-0.0892 -0.2195,-0.1345 -0.3746,-0.1345 -0.1469,0 -0.2665,0.0518 -0.362,0.1546 -0.0964,0.1027 -0.1436,0.2358 -0.1436,0.4024 0,0.144 0.0309,0.2668 0.0964,0.3639 0.0622,0.0975 0.1472,0.1856 0.2541,0.2642 0.1046,0.0801 0.2219,0.164 0.346,0.2532 0.1424,0.1028 0.2724,0.2041 0.3838,0.3053 0.1114,0.1013 0.2,0.2121 0.2645,0.3334 0.0655,0.1228 0.0974,0.2694 0.0974,0.4425 0,0.2067 -0.04,0.376 -0.1195,0.5094 -0.0802,0.1345 -0.1874,0.2385 -0.3193,0.3038 -0.1323,0.0669 -0.2792,0.1013 -0.4392,0.1013 -0.1482,0 -0.2632,-0.02 -0.3492,-0.057 -0.0851,-0.0401 -0.1577,-0.0802 -0.2196,-0.1213 -0.06,-0.0443 -0.1069,-0.0681 -0.1401,-0.0681 -0.044,0 -0.0759,0.0718 -0.0909,0.212 h -0.0968 c 0.007,-0.0669 0.0105,-0.1455 0.0118,-0.2373 9e-4,-0.0907 9e-4,-0.212 0.002,-0.3575 0.002,-0.1466 0.003,-0.3333 0.003,-0.5585 h 0.0945 c 0.0114,0.1908 0.0436,0.3718 0.0941,0.5385 0.0505,0.1655 0.13,0.3015 0.2369,0.4013 0.1046,0.1013 0.2483,0.1508 0.4252,0.1508 0.1345,0 0.2586,-0.0495 0.3701,-0.1508 0.1127,-0.0998 0.1677,-0.2626 0.1677,-0.4867 0,-0.1984 -0.0586,-0.3583 -0.1791,-0.4864 -0.1173,-0.1281 -0.2724,-0.26 -0.4669,-0.3945 -0.1297,-0.0934 -0.2515,-0.1882 -0.3652,-0.2827 -0.1141,-0.0975 -0.2036,-0.2094 -0.2714,-0.336 -0.0668,-0.1266 -0.1023,-0.2789 -0.1023,-0.4587 0,-0.1894 0.0378,-0.3466 0.1104,-0.4694 0.0733,-0.1224 0.1688,-0.2146 0.2874,-0.2744 0.1192,-0.0589 0.2469,-0.0895 0.3825,-0.0895 z"
         style="fill:#0c296a;fill-rule:evenodd"
         id="path16" />
      <path
         d="m 114.6816,80.2369 v 0.096 c -0.0944,0.0038 -0.1655,0.0201 -0.215,0.0492 -0.0482,0.0279 -0.0795,0.0748 -0.0968,0.1386 -0.0159,0.0643 -0.025,0.1546 -0.025,0.2733 v 1.4492 c 0,0.2241 -0.0127,0.4188 -0.0355,0.5854 -0.0268,0.1678 -0.0704,0.3118 -0.1336,0.4346 -0.0701,0.1345 -0.1711,0.2411 -0.3024,0.3254 -0.1332,0.0786 -0.2847,0.1198 -0.4574,0.1198 -0.1332,0 -0.2583,-0.0174 -0.3802,-0.0548 -0.1186,-0.037 -0.2241,-0.1051 -0.315,-0.2037 -0.0805,-0.0907 -0.1437,-0.184 -0.1896,-0.2842 -0.045,-0.0986 -0.0759,-0.2211 -0.0919,-0.3639 -0.0186,-0.1451 -0.0264,-0.3265 -0.0264,-0.5438 v -1.5105 c 0,-0.1187 -0.008,-0.2052 -0.0241,-0.2627 -0.0173,-0.0547 -0.0486,-0.0959 -0.0977,-0.1145 -0.0483,-0.0215 -0.1196,-0.0336 -0.2138,-0.0374 v -0.096 c 0.0574,0.0027 0.1343,0.0065 0.2287,0.0106 0.0942,0.0042 0.1942,0.0042 0.3021,0.0042 0.0967,0 0.1922,0 0.2886,-0.0042 0.0942,-0.0041 0.1746,-0.0079 0.2369,-0.0106 v 0.096 c -0.0932,0.0038 -0.1646,0.0159 -0.2118,0.0374 -0.0482,0.0186 -0.0828,0.0598 -0.0974,0.1145 -0.0173,0.0575 -0.0254,0.144 -0.0254,0.2627 v 1.5917 c 0,0.2173 0.0137,0.4188 0.04,0.6001 0.029,0.1826 0.09,0.3277 0.1818,0.4373 0.0932,0.1107 0.2379,0.1651 0.4333,0.1651 0.2092,0 0.3724,-0.0544 0.4861,-0.1625 0.115,-0.108 0.1955,-0.2547 0.2401,-0.4455 0.0463,-0.1863 0.0704,-0.3998 0.0704,-0.6372 V 80.794 c 0,-0.1187 -0.0127,-0.209 -0.0358,-0.2733 -0.0241,-0.0638 -0.0632,-0.1107 -0.1183,-0.1386 -0.0551,-0.0291 -0.131,-0.0454 -0.2232,-0.0492 v -0.096 c 0.0486,0.0027 0.1141,0.0065 0.1968,0.0106 0.0815,0.0042 0.1564,0.0042 0.2264,0.0042 0.0711,0 0.1424,0 0.2125,-0.0042 0.0703,-0.0041 0.1287,-0.0079 0.1726,-0.0106 z"
         style="fill:#0c296a;fill-rule:evenodd"
         id="path17" />
      <path
         d="m 117.0453,80.2369 v 0.096 c -0.0945,0.0038 -0.1655,0.0159 -0.2151,0.0374 -0.0482,0.0186 -0.0791,0.0598 -0.0964,0.1145 -0.0163,0.0575 -0.0254,0.144 -0.0254,0.2627 v 2.3865 c 0,0.1145 0.009,0.1999 0.0254,0.2585 0.0173,0.0574 0.0482,0.0948 0.0964,0.1118 0.0496,0.02 0.1206,0.0269 0.2151,0.0269 h 0.3023 c 0.1733,0 0.3056,-0.028 0.3952,-0.0866 0.0909,-0.0589 0.1564,-0.1523 0.1955,-0.2842 0.04,-0.1307 0.0687,-0.3065 0.0896,-0.529 h 0.0941 c -0.007,0.0997 -0.0101,0.232 -0.0101,0.3956 0,0.0616 10e-4,0.1482 0.005,0.2615 0.004,0.1145 0.0114,0.2321 0.0228,0.3545 -0.1414,-0.0079 -0.301,-0.0117 -0.477,-0.0132 -0.1769,0 -0.3342,-0.0027 -0.4724,-0.0027 h -0.3287 c -0.1368,0 -0.2828,0.0027 -0.4379,0.0027 -0.155,0.0015 -0.3,0.0053 -0.4356,0.0132 v -0.0986 c 0.0932,-0.0038 0.1655,-0.0174 0.2128,-0.0374 0.0495,-0.0186 0.0814,-0.0571 0.0977,-0.1145 0.0173,-0.0586 0.0251,-0.144 0.0251,-0.2585 v -2.3865 c 0,-0.1187 -0.008,-0.2052 -0.0251,-0.2627 -0.0163,-0.0547 -0.0482,-0.0959 -0.0977,-0.1145 -0.0473,-0.0215 -0.1196,-0.0336 -0.2128,-0.0374 v -0.096 c 0.0587,0.0027 0.1333,0.0065 0.2278,0.0106 0.0928,0.0042 0.1951,0.0042 0.302,0.0042 0.0977,0 0.1945,0 0.2886,-0.0042 0.0955,-0.0041 0.176,-0.0079 0.2392,-0.0106 z"
         style="fill:#0c296a;fill-rule:evenodd"
         id="path18" />
      <path
         d="m 121.4999,80.2369 c -0.0114,0.1213 -0.0196,0.2411 -0.0241,0.3534 -0.002,0.116 -0.005,0.2025 -0.005,0.2626 0,0.0771 0.001,0.1493 0.005,0.2173 0.002,0.0654 0.003,0.1266 0.007,0.1773 h -0.0945 c -0.0195,-0.2241 -0.0459,-0.4014 -0.0804,-0.5321 -0.032,-0.1278 -0.0906,-0.2238 -0.1724,-0.2812 -0.0837,-0.0574 -0.2127,-0.0865 -0.3851,-0.0865 h -0.2251 v 2.7368 c 0,0.1281 0.0104,0.2241 0.0323,0.2879 0.0195,0.0654 0.0596,0.1081 0.1218,0.1308 0.0596,0.0227 0.1492,0.0374 0.2642,0.0412 v 0.0986 c -0.0713,-0.0079 -0.1619,-0.0117 -0.2746,-0.0132 -0.1092,0 -0.2206,-0.0027 -0.3346,-0.0027 -0.1241,0 -0.2401,0.0027 -0.3493,0.0027 -0.1091,0.0015 -0.1977,0.0053 -0.2632,0.0132 v -0.0986 c 0.116,-0.0038 0.2046,-0.0185 0.2642,-0.0412 0.0609,-0.0227 0.1013,-0.0654 0.1219,-0.1308 0.0208,-0.0638 0.0312,-0.1598 0.0312,-0.2879 v -2.7368 h -0.2231 c -0.1701,0 -0.3001,0.0291 -0.3838,0.0865 -0.0841,0.0574 -0.1427,0.1534 -0.1746,0.2812 -0.0346,0.1307 -0.061,0.308 -0.0805,0.5321 h -0.0955 c 0.005,-0.0507 0.009,-0.1119 0.0114,-0.1773 0,-0.068 0.001,-0.1402 0.001,-0.2173 0,-0.0601 -0.001,-0.1466 -0.006,-0.2626 -0.006,-0.1123 -0.0127,-0.2321 -0.0228,-0.3534 0.1146,0.0027 0.2433,0.0065 0.3802,0.0106 0.1368,0.0042 0.2723,0.0042 0.4115,0.0042 h 0.3769 0.376 c 0.1355,0 0.2746,0 0.4124,-0.0042 0.1382,-0.0041 0.2633,-0.0079 0.377,-0.0106 z"
         style="fill:#0c296a;fill-rule:evenodd"
         id="path19" />
      <path
         d="m 124.3229,82.2572 v 0.0949 h -1.2345 l 0.0414,-0.0949 z m -0.5034,-2.0448 1.0103,3.0263 c 0.0414,0.1197 0.0883,0.2025 0.1391,0.2426 0.0538,0.04 0.1023,0.0627 0.147,0.0638 v 0.0975 c -0.0541,-0.0079 -0.1242,-0.0121 -0.2024,-0.0132 -0.0814,0 -0.1609,-0.0026 -0.2414,-0.0026 -0.1078,0 -0.2091,0.0026 -0.3033,0.0026 -0.0941,0.0011 -0.1688,0.0053 -0.2274,0.0132 v -0.0975 c 0.1414,-0.0053 0.231,-0.0344 0.2701,-0.0839 0.0368,-0.0491 0.0296,-0.1572 -0.0254,-0.3185 l -0.7725,-2.3903 0.0678,-0.0642 -0.7217,2.1744 c -0.0573,0.1735 -0.0873,0.3095 -0.0837,0.4082 0.003,0.096 0.0342,0.1678 0.0965,0.2063 0.0596,0.0427 0.1492,0.0669 0.2642,0.068 v 0.0975 c -0.0769,-0.0079 -0.1574,-0.0121 -0.2424,-0.0132 -0.0841,0 -0.1623,-0.0026 -0.2333,-0.0026 -0.07,0 -0.1287,0.0026 -0.1772,0.0026 -0.0492,0.0011 -0.0929,0.0053 -0.1333,0.0132 v -0.0975 c 0.0554,-0.0158 0.1115,-0.0517 0.1701,-0.1133 0.0577,-0.0571 0.1091,-0.1599 0.1564,-0.305 l 0.9735,-2.9144 h 0.0332 z"
         style="fill:#0c296a;fill-rule:evenodd"
         id="path20" />
      <path
         d="m 128.9505,80.2369 v 0.096 c -0.0932,0.0038 -0.1669,0.0201 -0.2138,0.0492 -0.0482,0.0279 -0.0804,0.0748 -0.0967,0.1386 -0.0173,0.0643 -0.0251,0.1546 -0.0251,0.2733 v 2.8717 h -0.0482 -0.0473 l -1.7413,-3.1223 v 2.5411 c 0,0.1148 0.009,0.2052 0.0267,0.2721 0.0169,0.0653 0.0537,0.1118 0.1091,0.1386 0.0528,0.0291 0.1333,0.0454 0.2411,0.0492 v 0.0986 c -0.0492,-0.0079 -0.1137,-0.0117 -0.1942,-0.0132 -0.0804,0 -0.156,-0.0027 -0.2287,-0.0027 -0.0687,0 -0.1378,0.0027 -0.2078,0.0027 -0.0714,0.0015 -0.13,0.0053 -0.1773,0.0132 v -0.0986 c 0.0922,-0.0038 0.1655,-0.0201 0.2128,-0.0492 0.0482,-0.0268 0.0818,-0.0733 0.0977,-0.1386 0.0173,-0.0669 0.0241,-0.1573 0.0241,-0.2721 v -2.337 c 0,-0.1187 -0.007,-0.2052 -0.0241,-0.2627 -0.0159,-0.0547 -0.0495,-0.0959 -0.0977,-0.1145 -0.0473,-0.0215 -0.1206,-0.0336 -0.2128,-0.0374 v -0.096 c 0.0473,0.0027 0.1059,0.0065 0.1773,0.0106 0.07,0.0042 0.1391,0.0042 0.2078,0.0042 0.0622,0 0.1186,0 0.1746,-0.0042 0.0564,-0.0041 0.105,-0.0079 0.1509,-0.0106 l 1.4618,2.617 V 80.794 c 0,-0.1187 -0.0104,-0.209 -0.0264,-0.2733 -0.0185,-0.0638 -0.054,-0.1107 -0.1091,-0.1386 -0.0531,-0.0291 -0.1336,-0.0454 -0.2427,-0.0492 v -0.096 c 0.0508,0.0027 0.1163,0.0065 0.1977,0.0106 0.0805,0.0042 0.1564,0.0042 0.2255,0.0042 0.0733,0 0.1437,0 0.2147,-0.0042 0.07,-0.0041 0.1264,-0.0079 0.1714,-0.0106 z"
         style="fill:#0c296a;fill-rule:evenodd"
         id="path21" />
      <path
         d="m 132.5792,80.2369 c -0.0105,0.1213 -0.0186,0.2411 -0.0242,0.3534 -0.001,0.116 -0.005,0.2025 -0.005,0.2626 0,0.0771 10e-4,0.1493 0.005,0.2173 0.002,0.0654 0.003,0.1266 0.007,0.1773 h -0.0942 c -0.0195,-0.2241 -0.0462,-0.4014 -0.0795,-0.5321 -0.0332,-0.1278 -0.0918,-0.2238 -0.1736,-0.2812 -0.0837,-0.0574 -0.2124,-0.0865 -0.3848,-0.0865 h -0.2254 v 2.7368 c 0,0.1281 0.0117,0.2241 0.0322,0.2879 0.0196,0.0654 0.0597,0.1081 0.1219,0.1308 0.0596,0.0227 0.1495,0.0374 0.2642,0.0412 v 0.0986 c -0.071,-0.0079 -0.1619,-0.0117 -0.2733,-0.0132 -0.1092,0 -0.2219,-0.0027 -0.3356,-0.0027 -0.1232,0 -0.2404,0.0027 -0.3496,0.0027 -0.1091,0.0015 -0.1964,0.0053 -0.2632,0.0132 v -0.0986 c 0.1163,-0.0038 0.2046,-0.0185 0.2645,-0.0412 0.0609,-0.0227 0.101,-0.0654 0.1219,-0.1308 0.0218,-0.0638 0.0309,-0.1598 0.0309,-0.2879 v -2.7368 h -0.2228 c -0.1704,0 -0.3001,0.0291 -0.3828,0.0865 -0.0851,0.0574 -0.1437,0.1534 -0.176,0.2812 -0.0345,0.1307 -0.0609,0.308 -0.0791,0.5321 h -0.0968 c 0.005,-0.0507 0.0104,-0.1119 0.0117,-0.1773 0,-0.068 10e-4,-0.1402 10e-4,-0.2173 0,-0.0601 -10e-4,-0.1466 -0.006,-0.2626 -0.004,-0.1123 -0.0114,-0.2321 -0.0228,-0.3534 0.115,0.0027 0.2437,0.0065 0.3806,0.0106 0.1365,0.0042 0.2733,0.0042 0.4114,0.0042 h 0.377 0.3756 c 0.1369,0 0.2747,0 0.4128,-0.0042 0.1378,-0.0041 0.2642,-0.0079 0.377,-0.0106 z"
         style="fill:#0c296a;fill-rule:evenodd"
         id="path22" />
      <path
         d="m 134.7196,80.1833 c 0.1391,0 0.2447,0.02 0.3151,0.0559 0.0723,0.0363 0.1355,0.0775 0.1919,0.1228 0.0332,0.0212 0.0596,0.0401 0.0804,0.0522 0.0196,0.0106 0.0414,0.0159 0.0587,0.0159 0.0459,0 0.0769,-0.0722 0.0928,-0.2121 h 0.0955 c -0.004,0.0548 -0.007,0.1187 -0.0114,0.1962 -0.004,0.0744 -0.006,0.1746 -0.008,0.297 -9e-4,0.1228 -9e-4,0.2853 -9e-4,0.4879 h -0.0968 c -0.008,-0.1546 -0.0368,-0.3012 -0.086,-0.4425 -0.0508,-0.1414 -0.1232,-0.2559 -0.2186,-0.3466 -0.0952,-0.0892 -0.2206,-0.1345 -0.3747,-0.1345 -0.1482,0 -0.2665,0.0518 -0.3629,0.1546 -0.0955,0.1027 -0.1427,0.2358 -0.1427,0.4024 0,0.144 0.0309,0.2668 0.0954,0.3639 0.0619,0.0975 0.1483,0.1856 0.2542,0.2642 0.1055,0.0801 0.2228,0.164 0.3469,0.2532 0.1424,0.1028 0.2724,0.2041 0.3828,0.3053 0.1124,0.1013 0.2001,0.2121 0.2656,0.3334 0.0654,0.1228 0.0974,0.2694 0.0974,0.4425 0,0.2067 -0.0401,0.376 -0.1206,0.5094 -0.0791,0.1345 -0.186,0.2385 -0.3183,0.3038 -0.1322,0.0669 -0.2805,0.1013 -0.4391,0.1013 -0.1483,0 -0.2633,-0.02 -0.3493,-0.057 -0.085,-0.0401 -0.1587,-0.0802 -0.2196,-0.1213 -0.0609,-0.0443 -0.1081,-0.0681 -0.1401,-0.0681 -0.0436,0 -0.0759,0.0718 -0.0909,0.212 H 133.92 c 0.007,-0.0669 0.0101,-0.1455 0.0101,-0.2373 10e-4,-0.0907 10e-4,-0.212 0.004,-0.3575 0.001,-0.1466 0.003,-0.3333 0.003,-0.5585 h 0.0945 c 0.0114,0.1908 0.0424,0.3718 0.0942,0.5385 0.0505,0.1655 0.13,0.3015 0.2355,0.4013 0.1059,0.1013 0.2483,0.1508 0.4255,0.1508 0.1355,0 0.2584,-0.0495 0.3711,-0.1508 0.1114,-0.0998 0.1678,-0.2626 0.1678,-0.4867 0,-0.1984 -0.0587,-0.3583 -0.1792,-0.4864 -0.1173,-0.1281 -0.2737,-0.26 -0.4669,-0.3945 -0.1296,-0.0934 -0.2515,-0.1882 -0.3652,-0.2827 -0.114,-0.0975 -0.2036,-0.2094 -0.2714,-0.336 -0.0677,-0.1266 -0.1033,-0.2789 -0.1033,-0.4587 0,-0.1894 0.0378,-0.3466 0.1115,-0.4694 0.0723,-0.1224 0.1687,-0.2146 0.2873,-0.2744 0.1183,-0.0589 0.247,-0.0895 0.3815,-0.0895 z"
         style="fill:#0c296a;fill-rule:evenodd"
         id="path23" />
      <path
         d="m 53.9546,74.3318 c 0,4.3739 -0.1116,5.1999 -0.7598,6.3839 -1.0483,1.8764 -2.8119,2.8794 -4.6421,2.8794 -1.6512,0 -2.6783,-0.7357 -2.6783,-1.943 0,-0.8934 0.5134,-1.4501 1.3165,-1.4501 0.625,0 0.9829,0.3568 1.2282,1.0271 0.3126,0.8472 0.7806,1.2052 1.3606,1.2052 1.0271,0 1.8301,-1.161 1.8301,-3.5708 V 61.5432 l -2.0079,-0.4254 v -0.5125 h 6.3395 v 0.5125 l -1.9868,0.4254 z"
         style="fill:#0c296a;fill-rule:evenodd"
         id="path24" />
      <path
         d="m 59.7097,74.5588 c 0,1.8081 1.0399,2.7352 2.65,2.7352 1.025,0 1.8218,-0.301 2.2502,-0.883 0.3839,-0.5134 0.5408,-1.3827 0.5408,-2.8919 v -6.0963 l -1.2672,-0.2706 v -0.3285 h 3.1194 v 0.3285 l -1.2818,0.2706 v 6.6942 c 0,1.1965 -0.1716,1.9796 -0.5421,2.5351 -0.5545,0.8126 -1.6795,1.2818 -3.1192,1.2818 -1.4659,0 -2.6636,-0.4841 -3.2898,-1.3102 -0.3705,-0.4979 -0.5557,-1.0978 -0.5557,-2.2785 v -6.9224 l -1.2819,-0.2706 v -0.3285 h 4.0455 v 0.3285 l -1.2682,0.2706 z"
         style="fill:#0c296a;fill-rule:evenodd"
         id="path25" />
      <path
         d="m 72.2593,72.251 c 1.1977,0 1.8227,-0.2986 2.2511,-0.7682 0.4125,-0.4704 0.5694,-1.0691 0.5694,-1.6816 0,-1.1536 -0.4829,-1.908 -1.3102,-2.2364 -0.3272,-0.1274 -0.6831,-0.1704 -1.2681,-0.1704 h -1.1673 v 4.8566 z m -3.6308,5.2137 1.2102,-0.2706 V 67.4228 L 68.6285,67.1522 V 66.824 h 4.2865 c 2.2364,0 3.8023,1.0975 3.8023,3.1204 0,1.4239 -0.883,2.3352 -2.3922,2.6908 l 3.0342,4.5589 1.6237,0.2706 v 0.3263 h -3.0908 l -3.1908,-4.9842 h -1.3672 v 4.3873 l 1.624,0.2706 v 0.3263 h -4.3297 z"
         style="fill:#0c296a;fill-rule:evenodd"
         id="path26" />
      <path
         d="M 81.1882,67.4228 79.9066,67.1525 V 66.824 h 4.0452 v 0.3285 l -1.2682,0.2703 v 9.7716 l 1.2682,0.2703 v 0.3263 h -4.0452 v -0.3263 l 1.2816,-0.2703 z"
         style="fill:#0c296a;fill-rule:evenodd"
         id="path27" />
      <path
         d="m 91.0905,67.5654 0.4555,-0.7411 h 0.2843 l 0.1283,3.1329 h -0.3702 c -0.4559,-1.8077 -1.2819,-2.6624 -2.5784,-2.6624 -1.082,0 -1.7514,0.6124 -1.7514,1.6237 0,2.7773 5.0559,2.3934 5.0559,5.7829 0,1.823 -1.4809,3.2182 -3.3898,3.2182 -0.7682,0 -1.4659,-0.2124 -2.2785,-0.7124 l -0.5704,0.5841 h -0.284 l -0.256,-3.6466 0.3559,-0.085 c 0.5692,2.2931 1.4385,3.2486 2.9909,3.2486 1.3102,0 2.1217,-0.6703 2.1217,-1.7669 0,-2.8056 -5.2412,-2.4933 -5.2412,-5.8544 0,-1.7228 1.3672,-3.0047 3.1762,-3.0047 0.8547,0 1.5238,0.2852 2.1512,0.8831 z"
         style="fill:#0c296a;fill-rule:evenodd"
         id="path28" />
      <path
         d="m 96.4294,72.5362 h 1.0683 c 1.1953,0 1.8373,-0.2852 2.2499,-0.7691 0.4272,-0.4991 0.5695,-1.1545 0.5695,-1.8227 0,-1.2252 -0.4842,-2.0512 -1.3102,-2.3796 -0.3139,-0.1274 -0.6832,-0.1704 -1.2673,-0.1704 H 96.4294 Z M 93.7237,66.824 h 4.4297 c 2.2362,0 3.802,1.1545 3.802,3.2624 0,1.951 -1.5384,3.0047 -4.0159,3.0047 h -1.5101 v 4.103 l 1.6238,0.2706 v 0.3263 h -4.3295 v -0.3263 l 1.2103,-0.2706 v -9.7713 l -1.2103,-0.2706 z"
         style="fill:#83837e;fill-rule:evenodd"
         id="path29" />
      <path
         d="m 105.6122,67.3947 v 4.3295 h 2.5488 c 0.2706,-0.5692 0.4275,-1.1387 0.5262,-1.7091 h 0.3431 v 3.9876 h -0.3431 c -0.0841,-0.5695 -0.2556,-1.1387 -0.5262,-1.709 h -2.5488 v 4.9281 h 4.015 c 0.5704,-0.9259 0.8827,-1.8385 1.1975,-2.7636 h 0.4683 l -0.5262,3.3331 h -7.8612 v -0.3272 l 1.2102,-0.2697 v -9.7713 l -1.2102,-0.2706 v -0.3282 h 7.9191 l 0.2422,3.1338 h -0.3422 c -0.2285,-0.8111 -0.5557,-1.752 -1.0262,-2.5634 z"
         style="fill:#83837e;fill-rule:evenodd"
         id="path30" />
      <path
         d="m 128.0784,77.4644 1.2818,-0.2706 v -9.7713 l -1.2818,-0.2706 v -0.3273 h 4.0454 v 0.3273 l -1.2672,0.2706 v 5.0997 l 4.0308,-4.5159 c 0.1566,-0.1704 0.2273,-0.3124 0.2273,-0.4272 0,-0.242 -0.3558,-0.3693 -1.1965,-0.4272 v -0.3273 h 3.76 v 0.3273 c -1.3111,0.2282 -1.6238,0.3568 -2.0793,0.8839 l -2.8194,3.2182 4.5714,5.9398 1.5808,0.2706 v 0.3272 h -3.0909 l -4.0579,-5.3977 -0.9263,1.0545 v 3.7454 l 1.2672,0.2706 v 0.3272 h -4.0454 z"
         style="fill:#83837e;fill-rule:evenodd"
         id="path31" />
      <path
         d="m 120.5668,65.5798 -7.8932,11.2826 11.5219,0.9271 z"
         style="fill:#354191;fill-rule:evenodd"
         id="path32" />
      <path
         d="m 127.2419,76.0683 -3.0467,1.7206 -3.6287,-12.2088 z"
         style="fill:#0c296a;fill-rule:evenodd"
         id="path33" />
      <path
         d="m 43.0771,72.5774 c 0,6.7869 -5.503,12.2888 -12.2897,12.2888 -6.787,0 -12.2879,-5.5019 -12.2879,-12.2888 0,-6.7867 5.5009,-12.2886 12.2879,-12.2886 6.7867,0 12.2897,5.5019 12.2897,12.2886 z"
         style="fill:#a4a2a0;fill-rule:evenodd"
         id="path34" />
      <path
         d="m 24.8061,72.1875 0.7611,1.5974 -0.8189,1.7503 h 5.1737 l -4.4318,-8.9012 0.8189,-1.5029 5.8574,11.8109 -9.7946,0.02 z"
         style="fill:#0c296a;fill-rule:evenodd"
         id="path35" />
      <path
         d="m 29.4083,68.2127 h 9.7958 l -2.3594,4.7924 -0.8547,-1.6162 0.9504,-1.7303 h -5.3252 l 4.4506,8.7484 -0.704,1.6166 z"
         style="fill:#0c296a;fill-rule:evenodd"
         id="path36" />
    </g>
    <path
       d="m 183.3157,32.5409 c 0,2.0962 -0.0522,2.4922 -0.3631,3.0591 -0.567,0.898 -1.5829,1.3799 -2.5889,1.3799 -1.1551,0 -1.8082,-0.4498 -1.8082,-1.1449 0,-0.5349 0.343,-0.813 0.771,-0.813 0.4379,0 0.642,0.2781 0.7801,0.6631 0.161,0.4819 0.343,0.6848 0.6001,0.6848 0.428,0 0.7687,-0.5559 0.7687,-1.7118 V 26.572 l -0.9088,-0.214 v -0.396 h 3.6479 v 0.396 l -0.8988,0.214 z"
       style="fill:#000200;fill-rule:evenodd"
       id="path37" />
    <path
       d="m 187.8474,32.9899 v -1.4338 c -1.0369,0.203 -1.3467,0.4488 -1.3467,1.0488 0,0.47 0.1927,0.6951 0.61,0.6951 0.288,0 0.5448,-0.1071 0.7367,-0.3101 z m -3.1328,0.053 c 0,-1.0689 0.9728,-1.69 3.1328,-1.9888 v -0.7812 c 0,-0.9729 -0.1377,-1.23 -0.6519,-1.23 -0.5338,0 -0.866,0.2781 -0.866,0.7271 0,0.1599 0.0431,0.3209 0.0431,0.4709 0,0.4062 -0.3209,0.716 -0.7379,0.716 -0.4173,0 -0.7061,-0.2988 -0.7061,-0.7268 0,-0.449 0.3101,-0.9201 0.845,-1.2731 0.5451,-0.3529 1.2509,-0.534 2.022,-0.534 0.769,0 1.2291,0.1811 1.4649,0.534 0.1709,0.2679 0.246,0.6421 0.246,1.433 v 2.2039 c 0,0.631 0.118,0.8991 0.406,0.8991 0.161,0 0.3211,-0.0861 0.4711,-0.2571 l 0.246,0.353 c -0.46,0.492 -0.9521,0.716 -1.5621,0.716 -0.6948,0 -1.037,-0.277 -1.1438,-0.845 h -0.0431 c -0.5341,0.578 -1.1021,0.845 -1.7541,0.845 -0.877,0 -1.4119,-0.47 -1.4119,-1.262 z"
       style="fill:#000200;fill-rule:evenodd"
       id="path38" />
    <path
       d="m 194.3056,32.37 1.0809,-2.621 c 0.0739,-0.172 0.0952,-0.2789 0.0952,-0.375 0,-0.288 -0.2662,-0.4379 -0.8552,-0.47 v -0.375 h 2.5781 v 0.375 c -0.8031,0.15 -0.9411,0.2991 -1.1769,0.855 l -2.471,5.9479 c -0.1922,0.47 -0.4173,0.7911 -0.6951,0.995 -0.278,0.1921 -0.6091,0.278 -1.0581,0.278 -0.7059,0 -1.2629,-0.3109 -1.2629,-0.9198 0,-0.4071 0.3099,-0.6741 0.684,-0.6741 0.322,0 0.5879,0.1709 0.6959,0.5451 0.1072,0.343 0.171,0.4068 0.3632,0.4068 0.246,0 0.5139,-0.2679 0.6737,-0.7058 l 0.4292,-1.1342 -2.289,-5.1658 c -0.119,-0.2682 -0.322,-0.3751 -0.8572,-0.4281 v -0.375 h 3.4872 v 0.375 c -0.5241,0.042 -0.7591,0.1171 -0.7591,0.3419 0,0.0641 0.0102,0.1281 0.0431,0.193 l 1.241,2.9311 z"
       style="fill:#000200;fill-rule:evenodd"
       id="path39" />
    <path
       d="m 199.8916,33.802 0.9099,-0.2239 V 26.572 l -0.9099,-0.214 v -0.396 h 3.6479 v 0.396 l -0.8989,0.214 v 3.177 l 2.5679,-2.7601 c 0.1171,-0.1179 0.1491,-0.246 0.1491,-0.3319 0,-0.2029 -0.2781,-0.288 -0.8229,-0.3101 V 25.962 h 3.0688 v 0.396 c -1.0049,0.1601 -1.2288,0.278 -1.5829,0.663 l -1.8819,2.054 3.2508,4.5241 0.974,0.2029 v 0.396 h -2.8559 l -2.6312,-3.7539 -0.2358,0.2458 v 2.8882 l 0.8989,0.2239 v 0.396 h -3.6479 z"
       style="fill:#000200;fill-rule:evenodd"
       id="path40" />
    <path
       d="m 211.6086,32.9899 v -1.4338 c -1.0369,0.203 -1.3471,0.4488 -1.3471,1.0488 0,0.47 0.1931,0.6951 0.6101,0.6951 0.288,0 0.5451,-0.1071 0.737,-0.3101 z m -3.134,0.053 c 0,-1.0689 0.974,-1.69 3.134,-1.9888 v -0.7812 c 0,-0.9729 -0.1381,-1.23 -0.652,-1.23 -0.5341,0 -0.866,0.2781 -0.866,0.7271 0,0.1599 0.0431,0.3209 0.0431,0.4709 0,0.4062 -0.322,0.716 -0.739,0.716 -0.4173,0 -0.7061,-0.2988 -0.7061,-0.7268 0,-0.449 0.311,-0.9201 0.8459,-1.2731 0.5451,-0.3529 1.2512,-0.534 2.0211,-0.534 0.7698,0 1.2299,0.1811 1.4649,0.534 0.1721,0.2679 0.246,0.6421 0.246,1.433 v 2.2039 c 0,0.631 0.1191,0.8991 0.4071,0.8991 0.161,0 0.3209,-0.0861 0.47,-0.2571 l 0.246,0.353 c -0.4589,0.492 -0.9521,0.716 -1.561,0.716 -0.6951,0 -1.0369,-0.277 -1.1449,-0.845 h -0.0431 c -0.5341,0.578 -1.101,0.845 -1.7529,0.845 -0.8771,0 -1.4131,-0.47 -1.4131,-1.262 z"
       style="fill:#000200;fill-rule:evenodd"
       id="path41" />
    <path
       d="m 217.8085,33.8241 v 0.3739 h -3.2088 v -0.3739 l 0.8019,-0.214 v -4.1182 l -0.7801,-0.299 V 28.946 l 1.9681,-0.523 h 0.4269 v 0.695 c 0.5142,-0.4181 1.2421,-0.695 1.8941,-0.695 0.6951,0 1.209,0.2769 1.497,0.8229 0.5139,-0.4918 1.3158,-0.8229 2.0319,-0.8229 0.7171,0 1.241,0.288 1.5202,0.8549 0.1278,0.2682 0.1599,0.5352 0.1599,1.5191 v 2.8131 l 0.7489,0.214 v 0.3739 h -3.155 v -0.3739 l 0.7481,-0.214 V 31.214 c 0,-0.7591 -0.0221,-1.069 -0.1069,-1.2841 -0.1392,-0.3529 -0.4601,-0.5559 -0.9522,-0.5559 -0.3319,0 -0.6088,0.129 -0.845,0.375 0.0221,0.224 0.0332,0.5341 0.0332,1.048 v 2.8131 l 0.7478,0.214 v 0.3739 h -3.1558 v -0.3739 l 0.7489,-0.214 V 31.214 c 0,-0.7591 -0.021,-1.069 -0.1072,-1.2841 -0.1389,-0.3628 -0.4597,-0.5658 -0.9518,-0.5658 -0.3201,0 -0.5879,0.1168 -0.813,0.3308 v 3.9152 z"
       style="fill:#000200;fill-rule:evenodd"
       id="path42" />
    <path
       d="M 229.6525,32.9791 V 30.327 c 0,-0.792 -0.4059,-1.3269 -1.0259,-1.3269 -0.792,0 -1.3062,0.9199 -1.3062,2.2788 0,1.3791 0.4712,2.2572 1.2952,2.2572 0.428,0 0.7801,-0.2151 1.0369,-0.557 z m -4.161,-1.5191 c 0,-1.7971 1.1979,-3.037 2.92,-3.037 0.407,0 0.8351,0.085 1.241,0.267 v -2.3 l -0.9091,-0.2991 v -0.246 l 2.3321,-0.525 h 0.235 V 33.15 l 0.845,0.2679 v 0.224 l -2.2249,0.663 h -0.1919 v -0.652 l -0.0542,-0.021 c -0.4379,0.4272 -1.0579,0.673 -1.754,0.673 -1.3689,0 -2.439,-1.2079 -2.439,-2.8449 z"
       style="fill:#000200;fill-rule:evenodd"
       id="path43" />
    <path
       d="m 235.8405,32.9899 v -1.4338 c -1.0369,0.203 -1.3478,0.4488 -1.3478,1.0488 0,0.47 0.193,0.6951 0.61,0.6951 0.288,0 0.5448,-0.1071 0.7378,-0.3101 z m -3.134,0.053 c 0,-1.0689 0.974,-1.69 3.134,-1.9888 v -0.7812 c 0,-0.9729 -0.1389,-1.23 -0.6531,-1.23 -0.5337,0 -0.866,0.2781 -0.866,0.7271 0,0.1599 0.0431,0.3209 0.0431,0.4709 0,0.4062 -0.3209,0.716 -0.7378,0.716 -0.417,0 -0.7061,-0.2988 -0.7061,-0.7268 0,-0.449 0.3101,-0.9201 0.845,-1.2731 0.5451,-0.3529 1.2509,-0.534 2.0219,-0.534 0.7691,0 1.2291,0.1811 1.465,0.534 0.172,0.2679 0.246,0.6421 0.246,1.433 v 2.2039 c 0,0.631 0.1179,0.8991 0.4059,0.8991 0.161,0 0.3212,-0.0861 0.4712,-0.2571 l 0.246,0.353 c -0.4601,0.492 -0.9522,0.716 -1.5622,0.716 -0.6947,0 -1.0369,-0.277 -1.1438,-0.845 h -0.043 c -0.5341,0.578 -1.1021,0.845 -1.7541,0.845 -0.8771,0 -1.412,-0.47 -1.412,-1.262 z"
       style="fill:#000200;fill-rule:evenodd"
       id="path44" />
    <path
       d="m 242.7035,33.8241 v 0.3739 h -3.8608 v -0.3739 l 0.8008,-0.214 v -4.1182 l -0.8119,-0.299 v -0.2568 l 2.1921,-0.5131 h 0.2248 v 0.9731 c 0.557,-0.6531 1.091,-0.9842 1.6151,-0.9842 0.5349,0 0.9199,0.3422 0.9199,0.802 0,0.3852 -0.2568,0.7492 -0.6849,0.7492 -0.1921,0 -0.341,-0.0752 -0.502,-0.2041 -0.193,-0.1599 -0.3532,-0.256 -0.5031,-0.256 -0.1179,0 -0.3529,0.053 -0.5448,0.267 -0.182,0.203 -0.2251,0.343 -0.2461,0.4709 v 3.3692 z"
       style="fill:#000200;fill-rule:evenodd"
       id="path45" />
    <path
       d="m 217.3705,37.3859 c -0.153,0 -0.2539,0.028 -0.2999,0.0841 -0.047,0.057 -0.07,0.1721 -0.07,0.3459 v 2.48 c 0,0.1732 0.0238,0.2852 0.072,0.337 0.0491,0.0522 0.15,0.0771 0.3031,0.0771 0.3259,0 0.5638,-0.0759 0.7129,-0.227 0.1471,-0.1519 0.2211,-0.3671 0.2211,-0.648 0,-0.256 -0.0692,-0.455 -0.2072,-0.5941 C 217.9647,39.1 217.7365,39.03 217.4204,39.03 h -0.5147 v -0.0851 h 0.43 c 0.1959,0 0.3478,-0.0368 0.4549,-0.112 0.1061,-0.0748 0.18,-0.1749 0.22,-0.2999 0.04,-0.125 0.0601,-0.259 0.0601,-0.403 0,-0.2461 -0.0553,-0.432 -0.1633,-0.5571 -0.108,-0.125 -0.2868,-0.187 -0.5369,-0.187 z m -1.2398,-0.0998 c 0.07,0.0028 0.1618,0.0059 0.2749,0.0099 0.1129,0.002 0.2251,0.004 0.3351,0.004 0.1559,0 0.307,-0.002 0.449,-0.004 0.144,-0.004 0.2449,-0.006 0.3059,-0.006 0.35,0 0.6131,0.074 0.79,0.2209 0.1769,0.146 0.265,0.3342 0.265,0.5641 0,0.117 -0.0249,0.231 -0.0731,0.343 -0.0479,0.1111 -0.129,0.2131 -0.2398,0.305 -0.1112,0.0921 -0.2611,0.1661 -0.4471,0.2219 v 0.0102 c 0.2631,0.0338 0.4689,0.097 0.6169,0.188 0.1479,0.0918 0.2531,0.1989 0.3132,0.3228 0.0598,0.123 0.089,0.2532 0.089,0.3892 0,0.2838 -0.1052,0.5159 -0.3172,0.6979 -0.212,0.182 -0.506,0.2719 -0.8819,0.2719 -0.0739,0 -0.1831,-0.002 -0.3299,-0.0069 -0.1471,-0.0051 -0.3232,-0.0079 -0.5301,-0.0079 -0.1171,0 -0.2321,9e-4 -0.345,0.0028 -0.1131,0.002 -0.2049,0.006 -0.2749,0.012 v -0.0998 c 0.1128,-0.006 0.199,-0.0202 0.2579,-0.04 0.057,-0.0201 0.097,-0.0601 0.1171,-0.1191 0.0198,-0.0609 0.0298,-0.151 0.0298,-0.2701 v -2.48 c 0,-0.1239 -0.01,-0.2149 -0.0298,-0.273 -0.0201,-0.0578 -0.0601,-0.0978 -0.1171,-0.1199 -0.0589,-0.0221 -0.1451,-0.034 -0.2579,-0.0371 z"
       style="fill:#000200;fill-rule:evenodd"
       id="path46" />
    <path
       d="m 219.6655,40.2551 c 0.087,0 0.1621,0.032 0.225,0.0949 0.063,0.0641 0.095,0.1389 0.095,0.2251 0,0.0868 -0.032,0.1619 -0.095,0.2248 -0.0629,0.0641 -0.138,0.095 -0.225,0.095 -0.087,0 -0.161,-0.0309 -0.2248,-0.095 -0.0632,-0.0629 -0.0953,-0.138 -0.0953,-0.2248 0,-0.0862 0.0321,-0.161 0.0953,-0.2251 0.0638,-0.0629 0.1378,-0.0949 0.2248,-0.0949 z"
       style="fill:#000200;fill-rule:evenodd"
       id="path47" />
    <path
       d="m 221.7807,37.2861 v 0.0998 c -0.1131,0.0031 -0.199,0.015 -0.2582,0.0371 -0.0579,0.0221 -0.097,0.0621 -0.1168,0.1199 -0.0202,0.0581 -0.0301,0.1491 -0.0301,0.273 v 2.48 c 0,0.1191 0.01,0.2092 0.0301,0.2701 0.0198,0.059 0.0589,0.099 0.1168,0.1171 0.0592,0.019 0.1451,0.0269 0.2582,0.0269 h 0.364 c 0.21,0 0.3699,-0.03 0.4779,-0.0901 0.108,-0.0598 0.1859,-0.1579 0.235,-0.2948 0.0479,-0.1361 0.0839,-0.32 0.108,-0.5502 h 0.1151 c -0.0102,0.104 -0.0162,0.2401 -0.0162,0.4102 0,0.0638 0.003,0.1539 0.008,0.2729 0.005,0.1191 0.0151,0.241 0.0272,0.3669 -0.1689,-0.006 -0.3611,-0.01 -0.574,-0.012 -0.214,-0.0019 -0.4039,-0.0028 -0.57,-0.0028 -0.1009,0 -0.233,0 -0.398,0 -0.165,0 -0.3402,9e-4 -0.527,0.0028 -0.187,0.002 -0.3619,0.006 -0.5249,0.012 v -0.0998 c 0.1128,-0.006 0.199,-0.0202 0.2579,-0.04 0.057,-0.0201 0.097,-0.0601 0.1171,-0.1191 0.0198,-0.0609 0.0298,-0.151 0.0298,-0.2701 v -2.48 c 0,-0.1239 -0.01,-0.2149 -0.0298,-0.273 -0.0201,-0.0578 -0.0601,-0.0978 -0.1171,-0.1199 -0.0589,-0.0221 -0.1451,-0.034 -0.2579,-0.0371 v -0.0998 c 0.07,0.0028 0.1618,0.0059 0.2749,0.0099 0.1128,0.002 0.2339,0.004 0.364,0.004 0.1179,0 0.233,-0.002 0.3481,-0.004 0.1148,-0.004 0.2109,-0.0071 0.288,-0.0099 z"
       style="fill:#000200;fill-rule:evenodd"
       id="path48" />
    <path
       d="m 223.8656,40.2551 c 0.087,0 0.1618,0.032 0.2259,0.0949 0.0621,0.0641 0.0941,0.1389 0.0941,0.2251 0,0.0868 -0.032,0.1619 -0.0941,0.2248 -0.0641,0.0641 -0.1389,0.095 -0.2259,0.095 -0.0871,0 -0.161,-0.0309 -0.2251,-0.095 -0.0629,-0.0629 -0.095,-0.138 -0.095,-0.2248 0,-0.0862 0.0321,-0.161 0.095,-0.2251 0.0641,-0.0629 0.138,-0.0949 0.2251,-0.0949 z"
       style="fill:#000200;fill-rule:evenodd"
       id="path49" />
    <path
       d="m 225.7756,37.23 c 0.1661,0 0.2931,0.0201 0.3801,0.0581 0.087,0.0388 0.163,0.0808 0.2299,0.127 0.0399,0.0238 0.0731,0.0408 0.0969,0.053 0.0261,0.0119 0.0502,0.0178 0.0731,0.0178 0.0531,0 0.0899,-0.074 0.11,-0.2208 h 0.1148 c -0.004,0.057 -0.008,0.125 -0.0127,0.203 -0.004,0.0779 -0.008,0.1819 -0.009,0.3098 -0.002,0.129 -0.003,0.2971 -0.003,0.508 h -0.1159 c -0.009,-0.161 -0.044,-0.3138 -0.1041,-0.461 -0.0601,-0.1459 -0.1468,-0.2658 -0.263,-0.3588 -0.1148,-0.0941 -0.2651,-0.1412 -0.4519,-0.1412 -0.1771,0 -0.322,0.0542 -0.4371,0.161 -0.1159,0.106 -0.1729,0.2461 -0.1729,0.419 0,0.1502 0.038,0.2761 0.1151,0.3781 0.076,0.1009 0.1789,0.1931 0.3078,0.275 0.1282,0.0819 0.2671,0.1689 0.417,0.2619 0.1729,0.1072 0.328,0.2132 0.4632,0.3181 0.1338,0.1051 0.2409,0.2211 0.3197,0.348 0.0783,0.1259 0.1171,0.279 0.1171,0.459 0,0.214 -0.049,0.39 -0.1448,0.5301 -0.0973,0.1408 -0.2251,0.2449 -0.3853,0.3149 -0.1598,0.0709 -0.3367,0.1049 -0.5309,0.1049 -0.1749,0 -0.3161,-0.0199 -0.419,-0.0598 -0.1029,-0.0392 -0.1919,-0.0811 -0.265,-0.1251 -0.0728,-0.0459 -0.1298,-0.07 -0.1701,-0.07 -0.0538,0 -0.0898,0.074 -0.11,0.2209 h -0.1148 c 0.006,-0.0709 0.0111,-0.1528 0.0119,-0.2478 0.002,-0.0952 0.004,-0.2191 0.005,-0.3722 0.002,-0.1539 0.003,-0.3469 0.003,-0.58 h 0.1151 c 0.013,0.2002 0.051,0.3861 0.1119,0.559 0.0621,0.1741 0.1571,0.313 0.2861,0.4181 0.1281,0.1049 0.2979,0.1579 0.5119,0.1579 0.163,0 0.3129,-0.053 0.4481,-0.1579 0.1338,-0.1051 0.2019,-0.2741 0.2019,-0.5079 0,-0.203 -0.072,-0.3711 -0.2149,-0.5052 -0.144,-0.1329 -0.3319,-0.2698 -0.5649,-0.409 -0.1571,-0.0969 -0.3031,-0.1959 -0.4403,-0.2948 -0.1369,-0.1012 -0.2457,-0.216 -0.3268,-0.3481 -0.0819,-0.1321 -0.123,-0.2911 -0.123,-0.4779 0,-0.1962 0.0439,-0.3592 0.1329,-0.487 0.0871,-0.1281 0.2041,-0.2242 0.347,-0.2852 0.1431,-0.062 0.2959,-0.0929 0.4601,-0.0929 z"
       style="fill:#000200;fill-rule:evenodd"
       id="path50" />
    <path
       d="m 227.8256,40.2551 c 0.087,0 0.1618,0.032 0.2259,0.0949 0.0621,0.0641 0.0941,0.1389 0.0941,0.2251 0,0.0868 -0.032,0.1619 -0.0941,0.2248 -0.0641,0.0641 -0.1389,0.095 -0.2259,0.095 -0.0871,0 -0.161,-0.0309 -0.2251,-0.095 -0.0629,-0.0629 -0.095,-0.138 -0.095,-0.2248 0,-0.0862 0.0321,-0.161 0.095,-0.2251 0.0641,-0.0629 0.138,-0.0949 0.2251,-0.0949 z"
       style="fill:#000200;fill-rule:evenodd"
       id="path51" />
    <path
       d="m 229.0856,40.2551 c 0.0731,0 0.134,0.015 0.1788,0.0448 0.0471,0.03 0.0851,0.0691 0.1163,0.1151 0.0368,0.0541 0.0598,0.1119 0.07,0.176 0.01,0.0629 0.015,0.1139 0.015,0.1539 0,0.1641 -0.0411,0.3121 -0.125,0.4462 -0.0831,0.1318 -0.2132,0.2409 -0.3901,0.324 l -0.045,-0.0902 c 0.104,-0.043 0.1919,-0.1108 0.2678,-0.2049 0.0752,-0.093 0.1123,-0.1879 0.1123,-0.2849 0,-0.0402 -0.005,-0.0742 -0.015,-0.1051 -0.053,0.0439 -0.1151,0.0649 -0.1851,0.0649 -0.0871,0 -0.161,-0.0278 -0.2251,-0.0848 -0.0629,-0.0561 -0.0958,-0.1352 -0.0958,-0.235 0,-0.0932 0.0329,-0.1701 0.0958,-0.2302 0.0641,-0.0589 0.138,-0.0898 0.2251,-0.0898 z"
       style="fill:#000200;fill-rule:evenodd"
       id="path52" />
    <path
       d="m 232.4905,37.2861 v 0.0998 c -0.1131,0.0031 -0.1989,0.015 -0.2579,0.0371 -0.0581,0.0221 -0.097,0.0621 -0.1171,0.1199 -0.0198,0.0581 -0.03,0.1491 -0.03,0.273 v 2.48 c 0,0.1191 0.0102,0.2092 0.03,0.2701 0.0201,0.059 0.059,0.099 0.1171,0.1171 0.059,0.019 0.1448,0.0269 0.2579,0.0269 h 0.364 c 0.2101,0 0.3691,-0.03 0.4779,-0.0901 0.108,-0.0598 0.1863,-0.1579 0.235,-0.2948 0.0482,-0.1361 0.0842,-0.32 0.108,-0.5502 h 0.1151 c -0.01,0.104 -0.0159,0.2401 -0.0159,0.4102 0,0.0638 0.003,0.1539 0.008,0.2729 0.005,0.1191 0.015,0.241 0.0269,0.3669 -0.1701,-0.006 -0.3608,-0.01 -0.574,-0.012 -0.214,-0.0019 -0.4039,-0.0028 -0.5701,-0.0028 -0.1009,0 -0.233,0 -0.3979,0 -0.165,0 -0.3399,9e-4 -0.527,0.0028 -0.1868,0.002 -0.362,0.006 -0.525,0.012 v -0.0998 c 0.1131,-0.006 0.199,-0.0202 0.2571,-0.04 0.0579,-0.0201 0.0981,-0.0601 0.1179,-0.1191 0.0202,-0.0609 0.0301,-0.151 0.0301,-0.2701 v -2.48 c 0,-0.1239 -0.01,-0.2149 -0.0301,-0.273 -0.0198,-0.0578 -0.06,-0.0978 -0.1179,-0.1199 -0.0581,-0.0221 -0.144,-0.034 -0.2571,-0.0371 v -0.0998 c 0.07,0.0028 0.1622,0.0059 0.275,0.0099 0.1131,0.002 0.2341,0.004 0.364,0.004 0.1182,0 0.233,-0.002 0.348,-0.004 0.1151,-0.004 0.2109,-0.0071 0.288,-0.0099 z"
       style="fill:#000200;fill-rule:evenodd"
       id="path53" />
    <path
       d="m 234.5754,40.2551 c 0.0871,0 0.1622,0.032 0.2262,0.0949 0.0618,0.0641 0.0939,0.1389 0.0939,0.2251 0,0.0868 -0.0321,0.1619 -0.0939,0.2248 -0.064,0.0641 -0.1391,0.095 -0.2262,0.095 -0.0867,0 -0.1607,-0.0309 -0.2248,-0.095 -0.0632,-0.0629 -0.0949,-0.138 -0.0949,-0.2248 0,-0.0862 0.0317,-0.161 0.0949,-0.2251 0.0641,-0.0629 0.1381,-0.0949 0.2248,-0.0949 z"
       style="fill:#000200;fill-rule:evenodd"
       id="path54" />
    <path
       d="m 236.6906,37.2861 v 0.0998 c -0.1131,0.0031 -0.199,0.015 -0.2579,0.0371 -0.0581,0.0221 -0.0972,0.0621 -0.1171,0.1199 -0.0201,0.0581 -0.03,0.1491 -0.03,0.273 v 2.48 c 0,0.1191 0.01,0.2092 0.03,0.2701 0.0199,0.059 0.059,0.099 0.1171,0.1171 0.0589,0.019 0.1448,0.0269 0.2579,0.0269 h 0.3649 c 0.2092,0 0.369,-0.03 0.477,-0.0901 0.108,-0.0598 0.1871,-0.1579 0.235,-0.2948 0.0479,-0.1361 0.0839,-0.32 0.108,-0.5502 h 0.1151 c -0.01,0.104 -0.0161,0.2401 -0.0161,0.4102 0,0.0638 0.003,0.1539 0.008,0.2729 0.005,0.1191 0.015,0.241 0.0278,0.3669 -0.1698,-0.006 -0.362,-0.01 -0.5749,-0.012 -0.2129,-0.0019 -0.404,-0.0028 -0.5701,-0.0028 -0.1009,0 -0.2318,0 -0.3968,0 -0.1653,0 -0.341,9e-4 -0.5281,0.0028 -0.1871,0.002 -0.362,0.006 -0.525,0.012 v -0.0998 c 0.1128,-0.006 0.199,-0.0202 0.258,-0.04 0.0569,-0.0201 0.0969,-0.0601 0.117,-0.1191 0.0199,-0.0609 0.0301,-0.151 0.0301,-0.2701 v -2.48 c 0,-0.1239 -0.0102,-0.2149 -0.0301,-0.273 -0.0201,-0.0578 -0.0601,-0.0978 -0.117,-0.1199 -0.059,-0.0221 -0.1452,-0.034 -0.258,-0.0371 v -0.0998 c 0.07,0.0028 0.1619,0.0059 0.275,0.0099 0.1139,0.002 0.235,0.004 0.3651,0.004 0.1168,0 0.2319,-0.002 0.3469,-0.004 0.1148,-0.004 0.2109,-0.0071 0.288,-0.0099 z"
       style="fill:#000200;fill-rule:evenodd"
       id="path55" />
    <path
       d="m 238.7755,40.2551 c 0.087,0 0.1622,0.032 0.2259,0.0949 0.0621,0.0641 0.0953,0.1389 0.0953,0.2251 0,0.0868 -0.0332,0.1619 -0.0953,0.2248 -0.0637,0.0641 -0.1389,0.095 -0.2259,0.095 -0.087,0 -0.161,-0.0309 -0.2239,-0.095 -0.0641,-0.0629 -0.0961,-0.138 -0.0961,-0.2248 0,-0.0862 0.032,-0.161 0.0961,-0.2251 0.0629,-0.0629 0.1369,-0.0949 0.2239,-0.0949 z"
       style="fill:#000200;fill-rule:evenodd"
       id="path56" />
    <path
       d="m 240.8556,37.3859 c -0.1531,0 -0.254,0.028 -0.2999,0.0841 -0.0462,0.057 -0.07,0.1721 -0.07,0.3459 v 2.48 c 0,0.1732 0.0249,0.2852 0.072,0.337 0.049,0.0522 0.1499,0.0771 0.303,0.0771 0.326,0 0.5649,-0.0759 0.7129,-0.227 0.148,-0.1519 0.222,-0.3671 0.222,-0.648 0,-0.256 -0.0701,-0.455 -0.207,-0.5941 C 241.4494,39.1 241.2227,39.03 240.9055,39.03 h -0.5148 v -0.0851 h 0.4297 c 0.1962,0 0.3493,-0.0368 0.4553,-0.112 0.1068,-0.0748 0.18,-0.1749 0.2199,-0.2999 0.04,-0.125 0.0599,-0.259 0.0599,-0.403 0,-0.2461 -0.0539,-0.432 -0.163,-0.5571 -0.108,-0.125 -0.2869,-0.187 -0.5369,-0.187 z m -1.2402,-0.0998 c 0.07,0.0028 0.1622,0.0059 0.2753,0.0099 0.1139,0.002 0.2248,0.004 0.3347,0.004 0.1571,0 0.307,-0.002 0.4502,-0.004 0.1429,-0.004 0.2449,-0.006 0.305,-0.006 0.3501,0 0.614,0.074 0.79,0.2209 0.1769,0.146 0.265,0.3342 0.265,0.5641 0,0.117 -0.024,0.231 -0.072,0.343 -0.049,0.1111 -0.1289,0.2131 -0.2409,0.305 -0.1111,0.0921 -0.2602,0.1661 -0.447,0.2219 v 0.0102 c 0.2628,0.0338 0.4688,0.097 0.6168,0.188 0.1491,0.0918 0.2531,0.1989 0.3129,0.3228 0.0601,0.123 0.0902,0.2532 0.0902,0.3892 0,0.2838 -0.106,0.5159 -0.3181,0.6979 -0.212,0.182 -0.5048,0.2719 -0.881,0.2719 -0.0748,0 -0.1839,-0.002 -0.3311,-0.0069 -0.1468,-0.0051 -0.3228,-0.0079 -0.5298,-0.0079 -0.117,0 -0.231,9e-4 -0.3449,0.0028 -0.1131,0.002 -0.2053,0.006 -0.2753,0.012 v -0.0998 c 0.1131,-0.006 0.1993,-0.0202 0.2583,-0.04 0.0569,-0.0201 0.0978,-0.0601 0.1168,-0.1191 0.0209,-0.0609 0.03,-0.151 0.03,-0.2701 v -2.48 c 0,-0.1239 -0.009,-0.2149 -0.03,-0.273 -0.019,-0.0578 -0.0599,-0.0978 -0.1168,-0.1199 -0.059,-0.0221 -0.1452,-0.034 -0.2583,-0.0371 z"
       style="fill:#000200;fill-rule:evenodd"
       id="path57" />
    <path
       d="m 243.1505,40.2551 c 0.087,0 0.1622,0.032 0.2259,0.0949 0.0621,0.0641 0.0953,0.1389 0.0953,0.2251 0,0.0868 -0.0332,0.1619 -0.0953,0.2248 -0.0637,0.0641 -0.1389,0.095 -0.2259,0.095 -0.087,0 -0.161,-0.0309 -0.2239,-0.095 -0.0641,-0.0629 -0.0961,-0.138 -0.0961,-0.2248 0,-0.0862 0.032,-0.161 0.0961,-0.2251 0.0629,-0.0629 0.1369,-0.0949 0.2239,-0.0949 z"
       style="fill:#000200;fill-rule:evenodd"
       id="path58" />
    <path
       d="m 220.0737,44.4019 c 0.0978,0.0051 0.2267,0.0091 0.3849,0.0142 0.159,0.0039 0.3149,0.0068 0.47,0.0068 0.218,0 0.428,-0.0029 0.629,-0.0068 0.201,-0.0051 0.343,-0.008 0.4269,-0.008 0.5649,0 0.9882,0.129 1.2671,0.3858 0.28,0.256 0.4201,0.5882 0.4201,0.9941 0,0.1681 -0.0281,0.3439 -0.0842,0.5281 -0.0559,0.1848 -0.1528,0.3549 -0.29,0.5108 -0.138,0.1571 -0.3248,0.2841 -0.5638,0.3821 -0.2381,0.0981 -0.5392,0.1469 -0.9031,0.1469 h -0.6721 v -0.1398 h 0.6032 c 0.3308,0 0.5839,-0.0632 0.758,-0.189 0.1749,-0.127 0.2939,-0.292 0.358,-0.4981 0.0618,-0.2049 0.095,-0.426 0.095,-0.665 0,-0.4431 -0.0882,-0.7741 -0.2631,-0.993 -0.1749,-0.2191 -0.4751,-0.3291 -0.9,-0.3291 -0.214,0 -0.354,0.0391 -0.4201,0.1191 -0.0649,0.0791 -0.0981,0.2401 -0.0981,0.483 v 3.4719 c 0,0.1672 0.017,0.2931 0.053,0.3781 0.0352,0.0839 0.1032,0.14 0.2072,0.1681 0.1021,0.0278 0.252,0.0459 0.4471,0.0559 v 0.1389 c -0.1211,-0.0088 -0.2761,-0.0139 -0.4621,-0.0168 -0.1871,-0.0022 -0.3761,-0.0031 -0.5661,-0.0031 -0.1831,0 -0.3529,9e-4 -0.5119,0.0031 -0.1582,0.0029 -0.2871,0.008 -0.3849,0.0168 V 49.218 c 0.1579,-0.01 0.2789,-0.0281 0.36,-0.0559 0.0819,-0.0281 0.1369,-0.0842 0.1649,-0.1681 0.0281,-0.085 0.042,-0.2109 0.042,-0.3781 V 45.144 c 0,-0.1729 -0.0139,-0.2999 -0.042,-0.3821 -0.028,-0.0819 -0.083,-0.1369 -0.1649,-0.1678 -0.0811,-0.0301 -0.2021,-0.0482 -0.36,-0.0522 z"
       style="fill:#000200;fill-rule:evenodd"
       id="path59" />
    <path
       d="m 225.2747,49.127 c 0.14,0 0.2778,-0.0411 0.413,-0.1231 0.1349,-0.081 0.2608,-0.2179 0.3778,-0.409 v -1.372 c -0.07,0.1021 -0.178,0.184 -0.3259,0.2452 -0.146,0.061 -0.298,0.127 -0.4542,0.199 -0.1567,0.072 -0.2908,0.1709 -0.4028,0.294 -0.1119,0.1238 -0.1681,0.2999 -0.1681,0.5278 0,0.2151 0.0531,0.375 0.1611,0.4802 0.1071,0.1049 0.24,0.1579 0.3991,0.1579 z m -0.3082,0.28 c -0.303,0 -0.5238,-0.0759 -0.661,-0.2279 -0.138,-0.1511 -0.2069,-0.354 -0.2069,-0.606 0,-0.1951 0.047,-0.3572 0.1428,-0.4862 0.0961,-0.1278 0.2192,-0.233 0.3683,-0.3149 0.1499,-0.0811 0.307,-0.1519 0.4728,-0.21 0.165,-0.0579 0.3231,-0.116 0.472,-0.171 0.1491,-0.0561 0.2721,-0.119 0.3682,-0.189 0.0949,-0.0701 0.1428,-0.1591 0.1428,-0.2659 v -0.434 c 0,-0.1962 -0.0289,-0.345 -0.0878,-0.4482 -0.0581,-0.1029 -0.1361,-0.172 -0.2342,-0.2069 -0.0981,-0.0349 -0.208,-0.0519 -0.3288,-0.0519 -0.1162,0 -0.2412,0.0159 -0.3742,0.0479 -0.134,0.0329 -0.2389,0.1009 -0.318,0.203 0.087,0.019 0.165,0.066 0.2302,0.1409 0.0649,0.074 0.0978,0.17 0.0978,0.2871 0,0.1171 -0.0369,0.2081 -0.112,0.2761 -0.0749,0.0678 -0.1709,0.1018 -0.2869,0.1018 -0.136,0 -0.2341,-0.044 -0.2979,-0.1299 -0.0621,-0.0861 -0.0941,-0.1831 -0.0941,-0.2899 0,-0.1222 0.03,-0.22 0.091,-0.294 0.0609,-0.0751 0.1369,-0.1451 0.231,-0.2112 0.1069,-0.074 0.246,-0.138 0.417,-0.1919 0.1701,-0.0541 0.362,-0.081 0.5768,-0.081 0.1911,0 0.3552,0.0229 0.4901,0.0669 0.135,0.0442 0.2469,0.1091 0.3359,0.193 0.1211,0.1111 0.2002,0.248 0.2382,0.409 0.0379,0.161 0.0561,0.3541 0.0561,0.5772 v 1.9459 c 0,0.1129 0.017,0.1959 0.0487,0.2489 0.0321,0.0542 0.089,0.08 0.1681,0.08 0.0649,0 0.1231,-0.0128 0.1721,-0.0409 0.049,-0.028 0.0961,-0.064 0.1429,-0.1051 l 0.0771,0.119 c -0.0981,0.074 -0.1919,0.1361 -0.2801,0.1851 -0.089,0.0491 -0.2081,0.074 -0.3569,0.074 -0.2421,0 -0.4031,-0.064 -0.483,-0.189 -0.0799,-0.127 -0.1191,-0.271 -0.1191,-0.4349 -0.1491,0.2478 -0.318,0.413 -0.5079,0.4969 -0.188,0.0839 -0.385,0.127 -0.5911,0.127 z"
       style="fill:#000200;fill-rule:evenodd"
       id="path60" />
    <path
       d="m 229.6916,45.654 c 0.1259,0 0.2378,0.026 0.3331,0.0779 0.0949,0.051 0.1698,0.1171 0.2239,0.199 0.0539,0.0822 0.08,0.174 0.08,0.2772 0,0.116 -0.036,0.2189 -0.108,0.3079 -0.0732,0.0881 -0.169,0.1329 -0.29,0.1329 -0.099,0 -0.1851,-0.032 -0.2591,-0.0949 -0.0748,-0.063 -0.1128,-0.152 -0.1128,-0.2699 0,-0.0882 0.0249,-0.1641 0.074,-0.2271 0.0479,-0.062 0.1029,-0.1131 0.1649,-0.1499 -0.0331,-0.0471 -0.0822,-0.07 -0.1479,-0.07 -0.1962,0 -0.3663,0.074 -0.5103,0.2199 -0.1448,0.1469 -0.2579,0.3229 -0.3398,0.529 -0.0811,0.2049 -0.1219,0.394 -0.1219,0.5669 v 1.4831 c 0,0.2299 0.0657,0.3821 0.199,0.4589 0.1329,0.0771 0.3129,0.116 0.5428,0.116 v 0.146 c -0.108,-0.004 -0.2599,-0.01 -0.455,-0.0168 -0.197,-0.0071 -0.405,-0.0102 -0.623,-0.0102 -0.1599,0 -0.3169,0.0031 -0.4728,0.0102 -0.1562,0.0068 -0.2742,0.0128 -0.3541,0.0168 v -0.146 c 0.1919,0 0.3288,-0.036 0.4099,-0.1049 0.0822,-0.07 0.123,-0.203 0.123,-0.3991 V 46.516 c 0,-0.2101 -0.038,-0.366 -0.1128,-0.466 -0.0751,-0.1001 -0.214,-0.15 -0.4201,-0.15 v -0.1471 c 0.15,0.0142 0.294,0.021 0.434,0.021 0.1361,0 0.265,-0.0088 0.3889,-0.025 0.1242,-0.017 0.237,-0.0408 0.3402,-0.074 V 46.55 c 0.0499,-0.1349 0.125,-0.271 0.2199,-0.4091 0.095,-0.1369 0.2109,-0.2528 0.3459,-0.3458 0.136,-0.0932 0.2851,-0.1411 0.4481,-0.1411 z"
       style="fill:#000200;fill-rule:evenodd"
       id="path61" />
    <path
       d="m 231.7575,44.591 v 1.1681 h 1.0361 V 45.9 h -1.0361 v 2.7091 c 0,0.2188 0.0391,0.373 0.1191,0.4609 0.079,0.089 0.1879,0.1341 0.3291,0.1341 0.14,0 0.2608,-0.057 0.3628,-0.1721 0.1032,-0.114 0.1922,-0.307 0.267,-0.5771 l 0.1392,0.034 c -0.0462,0.2721 -0.138,0.5 -0.2761,0.686 -0.138,0.1871 -0.3489,0.2812 -0.6341,0.2812 -0.1579,0 -0.2889,-0.0202 -0.3909,-0.0601 -0.1029,-0.0391 -0.1942,-0.0961 -0.2741,-0.171 -0.1021,-0.1071 -0.1741,-0.2361 -0.2129,-0.386 -0.04,-0.1491 -0.059,-0.347 -0.059,-0.5939 V 45.9 h -0.672 v -0.1409 h 0.672 V 44.689 c 0.116,-0.0051 0.228,-0.0141 0.336,-0.028 0.1071,-0.0139 0.2049,-0.038 0.2939,-0.07 z"
       style="fill:#000200;fill-rule:evenodd"
       id="path62" />
    <path
       d="m 235.4596,45.654 c 0.178,0 0.3259,0.024 0.4439,0.0711 0.119,0.0459 0.2191,0.112 0.2982,0.1959 0.089,0.093 0.1508,0.2089 0.1888,0.3501 0.0379,0.14 0.0561,0.3288 0.0561,0.5669 v 1.8689 c 0,0.1961 0.0411,0.3291 0.1219,0.3991 0.0822,0.0689 0.2191,0.1049 0.4101,0.1049 v 0.146 c -0.0799,-0.004 -0.2009,-0.01 -0.3639,-0.0168 -0.163,-0.0071 -0.322,-0.0102 -0.4751,-0.0102 -0.1551,0 -0.305,0.0031 -0.453,0.0102 -0.146,0.0068 -0.2571,0.0128 -0.3319,0.0168 v -0.146 c 0.1678,0 0.2868,-0.036 0.3569,-0.1049 0.07,-0.07 0.1048,-0.203 0.1048,-0.3991 v -2.0228 c 0,-0.1452 -0.0107,-0.2781 -0.0348,-0.4 -0.023,-0.121 -0.076,-0.2191 -0.1571,-0.2931 -0.0819,-0.0751 -0.2069,-0.112 -0.375,-0.112 -0.2939,0 -0.5301,0.1219 -0.7101,0.3671 -0.18,0.2449 -0.2698,0.5468 -0.2698,0.9068 v 1.554 c 0,0.1961 0.036,0.3291 0.1049,0.3991 0.07,0.0689 0.189,0.1049 0.3571,0.1049 v 0.146 c -0.0751,-0.004 -0.1851,-0.01 -0.3331,-0.0168 -0.1459,-0.0071 -0.297,-0.0102 -0.4509,-0.0102 -0.154,0 -0.3121,0.0031 -0.4751,0.0102 -0.165,0.0068 -0.286,0.0128 -0.3649,0.0168 v -0.146 c 0.192,0 0.328,-0.036 0.4091,-0.1049 0.0819,-0.07 0.1227,-0.203 0.1227,-0.3991 V 46.516 c 0,-0.2101 -0.038,-0.366 -0.1119,-0.466 -0.0749,-0.1001 -0.2149,-0.15 -0.4199,-0.15 v -0.1471 c 0.15,0.0142 0.294,0.021 0.434,0.021 0.1361,0 0.2639,-0.0088 0.3889,-0.025 0.1242,-0.017 0.237,-0.0408 0.3391,-0.074 v 0.8272 c 0.121,-0.3181 0.29,-0.538 0.5071,-0.6622 0.218,-0.1239 0.4459,-0.1859 0.6829,-0.1859 z"
       style="fill:#000200;fill-rule:evenodd"
       id="path63" />
    <path
       d="m 238.9876,45.654 c 0.4098,0 0.7319,0.125 0.962,0.375 0.2311,0.25 0.347,0.6381 0.347,1.1659 h -2.471 l -0.007,-0.133 h 1.806 c 0.0102,-0.229 -0.01,-0.4399 -0.0558,-0.6338 -0.0471,-0.193 -0.1202,-0.3492 -0.2211,-0.4652 -0.1001,-0.117 -0.2299,-0.1749 -0.3881,-0.1749 -0.2149,0 -0.4048,0.1069 -0.5701,0.322 -0.1669,0.2141 -0.2647,0.5551 -0.2979,1.0219 l 0.021,0.027 c -0.01,0.0711 -0.0159,0.1482 -0.021,0.2321 -0.005,0.0839 -0.007,0.1681 -0.007,0.252 0,0.3169 0.0522,0.5899 0.1542,0.819 0.1029,0.2279 0.2359,0.4019 0.402,0.521 0.165,0.119 0.337,0.1791 0.515,0.1791 0.2101,0 0.4029,-0.051 0.5809,-0.155 0.1771,-0.1021 0.326,-0.2841 0.447,-0.5451 l 0.1412,0.0561 c -0.0522,0.1528 -0.1361,0.303 -0.252,0.4479 -0.1171,0.1451 -0.2642,0.2619 -0.4411,0.3529 -0.178,0.0921 -0.383,0.1372 -0.6171,0.1372 -0.3351,0 -0.6239,-0.0771 -0.864,-0.2311 -0.2398,-0.155 -0.4249,-0.3679 -0.5531,-0.6409 -0.1278,-0.2732 -0.1919,-0.587 -0.1919,-0.9411 0,-0.411 0.0661,-0.7639 0.1951,-1.061 0.1309,-0.2959 0.316,-0.525 0.5539,-0.686 0.2369,-0.161 0.5161,-0.242 0.8331,-0.242 z"
       style="fill:#000200;fill-rule:evenodd"
       id="path64" />
    <path
       d="m 243.0057,45.654 c 0.1258,0 0.2369,0.026 0.3328,0.0779 0.0941,0.051 0.17,0.1171 0.223,0.199 0.0542,0.0822 0.08,0.174 0.08,0.2772 0,0.116 -0.036,0.2189 -0.108,0.3079 -0.072,0.0881 -0.169,0.1329 -0.29,0.1329 -0.0989,0 -0.1848,-0.032 -0.2588,-0.0949 -0.0751,-0.063 -0.1123,-0.152 -0.1123,-0.2699 0,-0.0882 0.0241,-0.1641 0.0732,-0.2271 0.049,-0.062 0.104,-0.1131 0.1649,-0.1499 -0.0328,-0.0471 -0.0819,-0.07 -0.1471,-0.07 -0.1967,0 -0.3659,0.074 -0.5108,0.2199 -0.1451,0.1469 -0.2579,0.3229 -0.3401,0.529 -0.0808,0.2049 -0.1219,0.394 -0.1219,0.5669 v 1.4831 c 0,0.2299 0.066,0.3821 0.199,0.4589 0.1329,0.0771 0.314,0.116 0.5431,0.116 v 0.146 c -0.1072,-0.004 -0.2602,-0.01 -0.4553,-0.0168 -0.1958,-0.0071 -0.4039,-0.0102 -0.6227,-0.0102 -0.1591,0 -0.3161,0.0031 -0.4731,0.0102 -0.1559,0.0068 -0.2741,0.0128 -0.3529,0.0168 v -0.146 c 0.1907,0 0.3279,-0.036 0.409,-0.1049 0.0819,-0.07 0.1227,-0.203 0.1227,-0.3991 V 46.516 c 0,-0.2101 -0.0379,-0.366 -0.1119,-0.466 -0.0749,-0.1001 -0.2149,-0.15 -0.4198,-0.15 v -0.1471 c 0.1488,0.0142 0.2939,0.021 0.4339,0.021 0.135,0 0.2639,-0.0088 0.3881,-0.025 0.1239,-0.017 0.2378,-0.0408 0.3399,-0.074 V 46.55 c 0.051,-0.1349 0.125,-0.271 0.2211,-0.4091 0.0938,-0.1369 0.2109,-0.2528 0.345,-0.3458 0.1357,-0.0932 0.286,-0.1411 0.449,-0.1411 z"
       style="fill:#000200;fill-rule:evenodd"
       id="path65" />
    <path
       d="m 235.7215,60.6657 h 7.9211 v 7.6546 h -7.9211 l -2.2099,-3.8273 z"
       style="fill:#0c296a;fill-rule:evenodd"
       id="path66" />
    <path
       d="m 237.4396,67.0164 c -0.1472,0 -0.292,-0.055 -0.4011,-0.1553 -0.1219,-0.112 -0.1928,-0.2716 -0.1928,-0.4377 V 65.628 c 0,-0.3013 0.2248,-0.5545 0.5238,-0.5882 0.1761,-0.0198 0.351,-0.0561 0.5202,-0.1074 0.2098,-0.0649 0.4368,-0.0088 0.5919,0.1457 l 0.3228,0.3223 c 0.6171,-0.3371 1.1311,-0.8524 1.4692,-1.4692 l -0.322,-0.3223 c -0.155,-0.1545 -0.2112,-0.3818 -0.146,-0.5933 0.0511,-0.1687 0.0871,-0.343 0.1069,-0.5187 0.034,-0.2988 0.2871,-0.5239 0.589,-0.5239 h 0.7952 c 0.1658,0 0.3259,0.0703 0.4368,0.1925 0.1131,0.1233 0.1681,0.2891 0.153,0.4555 -0.0518,0.5703 -0.204,1.122 -0.4498,1.6379 -0.2393,0.5017 -0.559,0.9564 -0.9542,1.351 -0.394,0.394 -0.8489,0.7151 -1.3498,0.9541 -0.5171,0.2458 -1.0681,0.3974 -1.639,0.4501 -0.0181,0.0012 -0.036,0.0023 -0.0541,0.0023 z"
       style="fill:#ffffff;fill-rule:evenodd"
       id="path67" />
    <path
       d="m 235.7215,74.4443 h 7.9211 v 7.6544 h -7.9211 l -2.2099,-3.8268 z"
       style="fill:#0c296a;fill-rule:evenodd"
       id="path68" />
    <path
       d="m 238.1057,77.2316 c -0.003,-0.1445 0.0669,-0.352 0.4218,-0.4175 0.358,-0.0649 0.862,-0.1063 1.3972,-0.0493 0.5338,0.0586 0.7378,0.2052 0.7378,0.4688 0.7212,0.3543 1.3261,0.169 1.3261,0.169 0,0 0.036,-0.2818 -0.2999,-0.8487 -1.9321,-0.7501 -4.066,-0.2526 -4.6123,0 -0.2049,0.2267 -0.3189,0.8487 -0.3189,0.8487 0.7631,0.2259 1.3482,-0.171 1.3482,-0.171 z m 3.9027,0.3101 c -0.4099,0.1205 -0.991,0.1313 -1.3339,-0.1391 0,0 -0.146,0.6397 0.608,0.7219 0.752,0.0854 0.7421,-0.2851 0.7259,-0.5828 z m -3.9129,-0.1391 c -0.343,0.2704 -0.9238,0.2596 -1.3329,0.1391 -0.017,0.2977 -0.0272,0.6682 0.7249,0.5828 0.7551,-0.0822 0.608,-0.7219 0.608,-0.7219 z m 2.003,0.8841 h -0.3839 v -0.2866 h 0.3839 z m 0,0.4722 h -0.3839 v -0.2871 h 0.3839 z m 0,0.4697 h -0.3839 v -0.2849 h 0.3839 z m -0.5409,-0.9419 h -0.3841 v -0.2866 h 0.3841 z m 0,0.4722 h -0.3841 v -0.2871 h 0.3841 z m 0,0.4697 h -0.3841 v -0.2849 h 0.3841 z m -0.5511,-0.9419 h -0.3869 v -0.2866 h 0.3869 z m 0,0.4722 h -0.3869 v -0.2871 h 0.3869 z m 0,0.4697 h -0.3869 v -0.2849 h 0.3869 z m 1.4009,-1.5123 v -0.5408 h -0.612 v 0.3861 h -0.8407 v -0.3861 h -0.6191 l 0.01,0.5287 c 0,0 -0.5681,0.8977 -0.7778,1.2727 -0.2101,0.375 -0.216,0.7098 -0.216,0.7098 v 0.6993 h 4.051 v -0.8067 c 0,-0.3028 -0.1931,-0.5755 -0.1931,-0.5755 z"
       style="fill:#ffffff;fill-rule:evenodd"
       id="path69" />
    <path
       d="m 235.7215,88.223 h 7.9211 v 7.6544 h -7.9211 L 233.5116,92.05 Z"
       style="fill:#0c296a;fill-rule:evenodd"
       id="path70" />
    <path
       d="m 241.5526,90.2571 h -4.6641 l 2.3321,1.4434 z"
       style="fill:#ffffff;fill-rule:evenodd"
       id="path71" />
    <path
       d="m 239.2206,92.3995 -2.897,-1.7929 v 3.2375 h 5.7928 v -3.2383 z"
       style="fill:#ffffff;fill-rule:evenodd"
       id="path72" />
    <text
       x="178.7216"
       y="81.120796"
       id="text72"><tspan
         font-family="'Montserrat Medium'"
         font-size="6px"
         fill="#000200"
         id="tspan72">+91(22) 3574 7532</tspan></text>
    <text
       x="180.41701"
       y="66.6726"
       id="text73"><tspan
         font-family="'Montserrat Medium'"
         font-size="6px"
         fill="#000200"
         id="tspan73">+91-98696 67222</tspan></text>
    <text
       x="167.0621"
       y="94.969101"
       id="text74"><tspan
         font-family="'Montserrat Medium'"
         font-size="6px"
         fill="#000200"
         id="tspan74">mail@jurispeak.co.in</tspan></text>
    <path
       d="m 235.8613,103.2586 h 7.9223 v 7.6541 h -7.9223 l -2.2098,-3.8271 z"
       style="fill:#0c296a;fill-rule:evenodd"
       id="path74" />
    <path
       d="m 239.4934,107.2792 c -0.4269,0 -0.7742,-0.3472 -0.7742,-0.773 0,-0.428 0.3473,-0.775 0.7742,-0.775 0.4269,0 0.7738,0.3478 0.7738,0.775 0,0.4258 -0.3469,0.773 -0.7738,0.773 z m 0,-2.7252 c -1.0761,0 -1.9511,0.8762 -1.9511,1.9522 0,0.7679 0.322,1.5449 0.93,2.249 0.4561,0.5239 0.906,0.8209 0.925,0.834 0.0292,0.0178 0.0632,0.028 0.0961,0.028 0.0328,0 0.066,-0.0102 0.0961,-0.028 0.0178,-0.0131 0.4688,-0.3101 0.9238,-0.834 0.6091,-0.7041 0.93,-1.4811 0.93,-2.249 0,-1.076 -0.875,-1.9522 -1.9499,-1.9522 z"
       style="fill:#ffffff;fill-rule:evenodd"
       id="path75" />
    <text
       x="40.845001"
       y="126.1542"
       id="text75"><tspan
         font-family="'Montserrat Medium'"
         font-size="6px"
         fill="#000200"
         id="tspan75">Office No. 101, E-Wing, Prashal, Sant Janabai Road, Vile Parle (E),Mumbai - 400 057</tspan></text>
  </g>
</svg>
